<svg id="Layer_1" data-name="Layer 1" xmlns="http://www.w3.org/2000/svg" viewBox="0 0 122.88 96.35"><title>cloud-services</title><path d="M86.38,31.27l-1.06.55-1.11.62-.06,0C83.1,33.09,82,33.78,81,34.54s-2.18,1.62-3.28,2.51a1,1,0,0,1-1.33-.13l-4.75-5.43a1,1,0,0,1,.07-1.32c.83-.78,1.71-1.52,2.62-2.24s1.86-1.38,2.82-2c.76-.49,1.55-1,2.38-1.43s1.64-.87,2.45-1.25c.34-.14.67-.33,1-.48a28.59,28.59,0,0,0-4.77-5.89A28.21,28.21,0,0,0,71.14,12a29.33,29.33,0,0,0-7.72-2.46,31,31,0,0,0-8.21-.31,29.3,29.3,0,0,0-7.94,1.89,27.78,27.78,0,0,0-7,3.92l0,0a26.44,26.44,0,0,0-6.53,7.44,30.26,30.26,0,0,0-3.63,9.81l-.47,2.47a1,1,0,0,1-.77.76L26.41,36c-1.19.21-2.3.46-3.35.74a29.65,29.65,0,0,0-2.93.95l-.05,0a22.82,22.82,0,0,0-2.44,1.12,18.76,18.76,0,0,0-2.19,1.37,15.2,15.2,0,0,0-2.79,2.59A14.72,14.72,0,0,0,10,47.54a16.59,16.59,0,0,0-.89,5.6,18.85,18.85,0,0,0,3.55,10.8l0,.05a17.5,17.5,0,0,0,1.36,1.65,16.37,16.37,0,0,0,1.54,1.47,16.81,16.81,0,0,0,1.81,1.28,14,14,0,0,0,2,1c.39.16.78.31,1.19.44a10.46,10.46,0,0,0,.48,2.22c.07.21.14.41.22.61A12.59,12.59,0,0,0,20.57,74a11,11,0,0,0-1.2,4.27l0,.75A27,27,0,0,1,16,77.84a25.3,25.3,0,0,1-3.29-1.66,21.92,21.92,0,0,1-2.92-2.07l0,0a26,26,0,0,1-2.34-2.22,27.22,27.22,0,0,1-2.1-2.56,27.78,27.78,0,0,1-3.89-7.63A28.21,28.21,0,0,1,0,53.17a25.88,25.88,0,0,1,1.42-8.72A23.92,23.92,0,0,1,5.65,37a25.41,25.41,0,0,1,2.08-2.2,26.63,26.63,0,0,1,2.37-1.94,25.38,25.38,0,0,1,3.17-2,30.9,30.9,0,0,1,3.58-1.64c.86-.34,1.76-.65,2.69-.93.75-.23,1.52-.44,2.29-.63a38.26,38.26,0,0,1,4.74-10.85,35.42,35.42,0,0,1,8.18-8.94,36.58,36.58,0,0,1,9.18-5.19A39,39,0,0,1,54.36.18,40.09,40.09,0,0,1,65,.59,38.68,38.68,0,0,1,75.09,3.82a37.26,37.26,0,0,1,10,7,37.72,37.72,0,0,1,6.92,9.37c.6-.08,1.18-.14,1.76-.18.79-.06,1.6-.09,2.43-.08a26.08,26.08,0,0,1,10.28,2.11l.06,0a25.07,25.07,0,0,1,8.36,6A22.64,22.64,0,0,1,116.53,30c.52.66,1,1.36,1.5,2.09l0,.06a29.45,29.45,0,0,1,3.61,8.35,37.09,37.09,0,0,1,1.21,9.76,34.54,34.54,0,0,1-1.44,9.61,25.62,25.62,0,0,1-3.92,7.9,26.26,26.26,0,0,1-3.93,4.17A30.11,30.11,0,0,1,109,75.15a9,9,0,0,0-.17-1.38v0a10.31,10.31,0,0,0-1.5-3.65l0,0h0L106,68a9,9,0,0,0-.88-1.13v0a21.71,21.71,0,0,0,2.51-1.8A15.71,15.71,0,0,0,112.76,57a24.88,24.88,0,0,0,1-6.8,27.53,27.53,0,0,0-.85-7.18,20.29,20.29,0,0,0-2.53-5.94c-.33-.51-.67-1-1-1.43s-.71-.88-1.09-1.28a16.15,16.15,0,0,0-5.42-3.88,17,17,0,0,0-6.64-1.36,21.77,21.77,0,0,0-4.85.53,26.84,26.84,0,0,0-5,1.64Zm4,36.26a1.17,1.17,0,0,0-1,.17,1.23,1.23,0,0,0-.55.81l-.39,1.88a11.75,11.75,0,0,0-1.32.11c-.44.07-.87.16-1.3.27L84.77,69a1.23,1.23,0,0,0-.8-.55,1.2,1.2,0,0,0-1,.19l-2.2,1.43a1.22,1.22,0,0,0-.53.79,1.21,1.21,0,0,0,.17,1l1.05,1.6A10.16,10.16,0,0,0,80,75.57l-2.08-.42a1.16,1.16,0,0,0-.94.16,1.26,1.26,0,0,0-.54.8l-.53,2.55a1.28,1.28,0,0,0,.17,1,1.21,1.21,0,0,0,.81.54l1.89.4a9.63,9.63,0,0,0,.1,1.31,11.11,11.11,0,0,0,.28,1.3l-1.75,1.15a1.18,1.18,0,0,0-.55.79,1.23,1.23,0,0,0,.18,1l1.44,2.2a1.22,1.22,0,0,0,.79.54,1.19,1.19,0,0,0,1-.18l1.61-1.05a8.29,8.29,0,0,0,1,.86,13,13,0,0,0,1.11.71l-.43,2a1.16,1.16,0,0,0,.16.94,1.26,1.26,0,0,0,.81.55l2.56.55A1.25,1.25,0,0,0,88,93a1.27,1.27,0,0,0,.56-.78l.38-1.91a8.4,8.4,0,0,0,1.32-.11A10.93,10.93,0,0,0,91.52,90l1.15,1.75a1.2,1.2,0,0,0,.8.55,1.23,1.23,0,0,0,1-.18l2.19-1.44a1.23,1.23,0,0,0,.54-.79,1.21,1.21,0,0,0-.17-1l-1-1.6a10,10,0,0,0,.85-1,11.77,11.77,0,0,0,.71-1.12l2.06.44a1.17,1.17,0,0,0,.94-.17,1.15,1.15,0,0,0,.54-.8l.55-2.56a1.31,1.31,0,0,0-.19-1,1.27,1.27,0,0,0-.79-.55l-1.91-.39a8.37,8.37,0,0,0-.11-1.31,9.68,9.68,0,0,0-.27-1.3l1.75-1.14a1.22,1.22,0,0,0,.55-.8,1.23,1.23,0,0,0-.18-1L99,72.47a1.25,1.25,0,0,0-1.74-.36l-1.61,1a9.18,9.18,0,0,0-1-.84,9.7,9.7,0,0,0-1.11-.7l.42-2.08a1.16,1.16,0,0,0-.16-.94,1.21,1.21,0,0,0-.81-.54l-2.55-.53ZM88.48,76a4.57,4.57,0,0,1,1.73.24,4.63,4.63,0,0,1,1.44.86,4.34,4.34,0,0,1,1,1.34,4.28,4.28,0,0,1,.44,1.69,4.33,4.33,0,0,1-.25,1.72A4.47,4.47,0,0,1,92,83.3a4.43,4.43,0,0,1-1.35,1,4.39,4.39,0,0,1-3.41.19,4.28,4.28,0,0,1-2.45-2.2,4.41,4.41,0,0,1,.66-4.85,4.42,4.42,0,0,1,1.35-1A4.35,4.35,0,0,1,88.48,76ZM57.18,56.38a2,2,0,0,0-2.74.9L53,60.05A14.52,14.52,0,0,0,51,59.67a19.19,19.19,0,0,0-2.14-.12l-1.05-3.2a2,2,0,0,0-2.56-1.3l-4,1.32a2,2,0,0,0-1.17,1,1.91,1.91,0,0,0-.12,1.55l1,2.94a16.08,16.08,0,0,0-3.28,2.66L34.51,63A1.83,1.83,0,0,0,33,62.87a2,2,0,0,0-1.18,1l-1.89,3.74a2,2,0,0,0,.9,2.74l2.77,1.41a14.27,14.27,0,0,0-.38,2.09c-.08.71-.11,1.42-.12,2.13l-3.2,1a2,2,0,0,0-1.29,2.57l1.32,4a1.94,1.94,0,0,0,1,1.16,2,2,0,0,0,1.56.13l2.93-1a15,15,0,0,0,1.24,1.76,17.74,17.74,0,0,0,1.44,1.56l-1.54,3a1.88,1.88,0,0,0-.14,1.52,2,2,0,0,0,1,1.19L41.19,95a2,2,0,0,0,1.55.09,2,2,0,0,0,1.19-1l1.39-2.81a14.52,14.52,0,0,0,2.09.38,19.14,19.14,0,0,0,2.13.12l1.06,3.2a2,2,0,0,0,2.56,1.3l4-1.32a2,2,0,0,0,1.17-1,1.93,1.93,0,0,0,.12-1.56l-1-2.94a13.77,13.77,0,0,0,1.75-1.24,19.44,19.44,0,0,0,1.57-1.43l3,1.53a1.85,1.85,0,0,0,1.54.14,1.87,1.87,0,0,0,1.17-1l1.93-3.75a2.08,2.08,0,0,0,.09-1.55,2.06,2.06,0,0,0-1-1.19l-2.81-1.4a14.27,14.27,0,0,0,.38-2.09,19,19,0,0,0,.11-2.13l3.21-1a2,2,0,0,0,1.29-2.57l-1.32-4a2,2,0,0,0-2.56-1.29l-2.93,1a15.79,15.79,0,0,0-1.24-1.74A15.06,15.06,0,0,0,60.3,64L61.82,61A1.9,1.9,0,0,0,62,59.45a2,2,0,0,0-1-1.18l-3.75-1.89ZM48.71,67.17a8.36,8.36,0,0,1,3.34.47,8.73,8.73,0,0,1,2.8,1.66,8.61,8.61,0,0,1,2,2.61,8.42,8.42,0,0,1,.85,3.27,8.55,8.55,0,0,1-.48,3.34,8.41,8.41,0,0,1-4.26,4.76,8.68,8.68,0,0,1-6.61.37,8.53,8.53,0,0,1-5.13-10.88A8.66,8.66,0,0,1,42.84,70a8.78,8.78,0,0,1,2.6-2,8.33,8.33,0,0,1,3.27-.84Z"/></svg>