<svg width="266" height="167" viewBox="0 0 266 167" fill="none" xmlns="http://www.w3.org/2000/svg">
<path d="M92.0686 10.1492C92.0686 14.3267 98.7644 17.7132 94.105 17.7132C89.4456 17.7132 85.6685 14.3267 85.6685 10.1492C85.6685 5.97173 89.4456 2.58521 94.105 2.58521C98.7644 2.58521 92.0686 5.97173 92.0686 10.1492Z" fill="#FE964A"/>
<path d="M158.23 6.5L159.362 9.9844H163.026L160.062 12.1379L161.194 15.6223L158.23 13.4688L155.266 15.6223L156.398 12.1379L153.434 9.9844H157.098L158.23 6.5Z" fill="#FE964A"/>
<path d="M34.3784 80.1553C34.3784 80.1553 45.1265 74.802 47.5648 77.6078C48.9043 79.1493 49.9159 81.0164 48.7162 82.5333C47.7914 83.7026 46.4563 83.8516 44.8919 83.5769C41.5791 82.9951 41.6293 78.3947 42.9591 75.5455C44.7952 71.6117 54.5417 73.9336 54.5417 73.9336" stroke="#0BA259" stroke-width="2.01707"/>
<circle cx="229.217" cy="74.7923" r="5.88312" fill="#FFEDEC"/>
<path d="M56.0474 136.491L56.8844 129.271L62.7199 132.97L63.3851 126.914L68.7079 130.58L70.3656 124.033" stroke="#2F78EE" stroke-width="1.68089"/>
<path d="M193.301 22.4249C193.301 22.4249 192.482 17.5642 194.831 16.5954C196.803 15.7815 198.514 19.3808 200.135 18.0759C201.777 16.7541 197.678 14.6601 199.013 13.0791C200.418 11.4152 204.929 13.0791 204.929 13.0791" stroke="#2F78EE" stroke-width="2.01707"/>
<path d="M32.9552 15.1399L54.5615 25.8961L49.1613 33.2604L32.9552 15.1399Z" fill="#2F78EE"/>
<circle cx="224.346" cy="94.8126" r="2.52134" fill="#FFEDEC"/>
<path d="M200.116 128.002C202.887 128.281 205.58 124.065 205.269 127.156C204.958 130.247 202.46 132.526 199.689 132.247C196.918 131.968 194.924 129.237 195.235 126.146C195.546 123.055 197.345 127.723 200.116 128.002Z" fill="#2F78EE"/>
<path d="M209.11 39.4929L210.997 45.3003H217.103L212.163 48.8894L214.05 54.6967L209.11 51.1076L204.17 54.6967L206.057 48.8894L201.117 45.3003H207.223L209.11 39.4929Z" fill="#0BA259"/>
<rect x="82.7998" y="26.323" width="100" height="100" rx="50" fill="#27A376"/>
<g filter="url(#filter0_d_935_42238)">
<rect x="102.8" y="46.323" width="60" height="60" rx="30" fill="white" shape-rendering="crispEdges"/>
<path fill-rule="evenodd" clip-rule="evenodd" d="M143.684 69.1891C144.172 69.6773 144.172 70.4687 143.684 70.9569L131.184 83.4569C130.696 83.945 129.904 83.945 129.416 83.4569L123.166 77.2069C122.678 76.7187 122.678 75.9273 123.166 75.4391C123.654 74.951 124.446 74.951 124.934 75.4391L130.3 80.8052L141.916 69.1891C142.404 68.701 143.196 68.701 143.684 69.1891Z" fill="#111827"/>
</g>
<defs>
<filter id="filter0_d_935_42238" x="62.7998" y="26.323" width="140" height="140" filterUnits="userSpaceOnUse" color-interpolation-filters="sRGB">
<feFlood flood-opacity="0" result="BackgroundImageFix"/>
<feColorMatrix in="SourceAlpha" type="matrix" values="0 0 0 0 0 0 0 0 0 0 0 0 0 0 0 0 0 0 127 0" result="hardAlpha"/>
<feOffset dy="20"/>
<feGaussianBlur stdDeviation="20"/>
<feComposite in2="hardAlpha" operator="out"/>
<feColorMatrix type="matrix" values="0 0 0 0 0 0 0 0 0 0 0 0 0 0 0 0 0 0 0.3 0"/>
<feBlend mode="normal" in2="BackgroundImageFix" result="effect1_dropShadow_935_42238"/>
<feBlend mode="normal" in="SourceGraphic" in2="effect1_dropShadow_935_42238" result="shape"/>
</filter>
</defs>
</svg>
