<svg width="646" height="484" viewBox="0 0 646 484" fill="none" xmlns="http://www.w3.org/2000/svg">
<g clip-path="url(#clip0_126_13558)">
<path d="M645.052 482.103H548.468C548.763 481.814 548.781 481.506 548.663 481.235L524.611 425.484C527.629 425.484 598.852 425.479 617.854 425.478C618.365 425.478 618.8 425.061 618.8 424.529V229.89C618.8 229.378 618.365 228.942 617.854 228.942C426.162 228.954 493.219 228.95 476.212 228.951V182.448C476.212 181.923 475.788 181.499 475.264 181.499H375.46V165.549H378.362C379.426 165.549 380.291 164.683 380.291 163.615V153.861H382.626C384.091 153.861 385.285 152.667 385.285 151.199V142.617H396.054C411.042 142.617 424.906 134.557 432.392 121.558C453.008 121.558 384.202 121.558 625.637 121.558C626.168 121.558 626.584 121.142 626.584 120.609V78.3288C626.584 77.7978 626.168 77.3796 625.637 77.3796C559.929 77.3796 495.084 77.3796 430.971 77.3796C424.123 67.0603 413.324 60.3678 401.131 58.8906C401.521 56.6342 401.717 54.3492 401.717 52.0793C401.717 30.4584 384.175 12.869 362.615 12.869C352.425 12.869 342.861 16.735 335.528 23.784C327.78 8.25994 312.876 0 297.6 0C267.847 0.109812 246.786 30.7924 259.684 59.6834C240.847 64.0939 227.302 81.1192 227.302 100.624C227.302 123.78 246.117 142.62 269.244 142.62H289.672V151.202C289.672 152.668 290.865 153.864 292.333 153.864H294.666V163.618C294.666 164.684 295.531 165.552 296.598 165.552H299.499V212.448C299.499 212.971 299.923 213.397 300.446 213.397H400.25V228.954H334.535C334.012 228.954 333.588 229.378 333.588 229.903V424.539C333.588 425.064 334.012 425.488 334.535 425.488H424.88L439.097 458.444H417.052C416.644 458.444 416.299 458.689 416.137 459.035L405.641 481.11C405.499 481.435 405.52 481.802 405.702 482.108H272.849V263.098C269.655 263.118 284.42 263.029 241.61 263.283C244.947 250.655 264.062 178.29 267.402 165.652C267.543 165.122 267.205 164.575 266.657 164.474L247.011 160.873C246.529 160.799 246.067 161.074 245.931 161.542L220.932 247.521L177.201 250.512C177.734 245.934 176.723 240.212 173.58 237.617C172.267 236.536 169.993 235.528 166.579 236.868C161.151 239.004 160.318 238.096 160.286 238.058C160.031 237.754 164.051 229.586 158.025 224.969C155.609 223.113 152.97 224.204 153.407 228.089C153.907 232.572 149.085 236.152 146.746 237.611V233.25C146.746 232.763 146.378 232.355 145.892 232.307L100.381 227.766C100.391 227.539 100.405 227.304 100.414 227.081C119.857 228.899 162.706 210.247 164.553 209.438C165.003 209.241 165.227 208.731 165.071 208.265L164.563 206.763C168.836 206.7 181.95 205.846 185.967 197.864C187.268 195.274 184.872 189.15 182.89 185.203C190.517 183.796 194.746 182.006 196.154 179.599C196.731 178.614 196.829 177.505 196.435 176.398C194.138 169.93 174.962 175.902 174.752 175.974C168.381 178.208 160.109 183.331 157.247 185.16L156.62 183.309C156.46 182.833 155.965 182.566 155.477 182.698L109.581 195.033C106.102 189.442 93.6144 171.605 80.5457 159.65C79.9628 155.298 79.3979 154.503 77.1054 152.232V148.416C78.803 149.09 81.7205 149.703 84.5088 147.647C87.871 145.166 91.1581 130.479 88.158 122.25C93.9765 120.086 91.741 110.299 91.741 110.299C84.946 113.947 79.8817 109.017 76.3287 107.352C60.8442 100.094 60.2868 114.367 60.2868 114.367C53.1628 116.355 58.4029 132.526 60.3439 137.854C60.8006 139.109 61.6119 140.232 62.7296 140.947C62.7461 141.313 62.7642 141.681 62.7732 142.041C62.4847 141.973 62.2248 141.937 62.0265 141.967C60.8096 142.15 60.1636 146.019 59.8857 148.3C47.5546 148.083 38.5121 159.052 35.0162 171.002C34.5144 172.291 34.1554 173.711 34.0111 175.271C32.4668 183.595 33.263 192.522 36.5846 200.546C42.3611 214.543 37.8511 241.855 34.5805 257.15C34.2981 258.265 35.53 253.075 31.9755 268.152C31.8628 268.774 32.0972 269.169 32.593 269.332C28.9213 280.742 28.4435 291.357 28.4435 291.357C25.6777 334.417 43.3902 379.696 43.3902 379.696L37.139 461.489H40.4681C40.4666 461.684 40.4381 465.045 40.4396 464.828C39.9528 464.645 39.4886 464.978 39.4886 465.445V482.108H0.947967C0.423656 482.108 0 482.532 0 483.057C0 483.582 0.423656 484.006 0.947967 484.006H645.054C645.578 484.006 646.001 483.582 646.001 483.057C646.001 482.532 645.578 482.108 645.054 482.108L645.052 482.103ZM80.3564 461.486V465.009L67.7278 464.849V461.486H80.3564ZM103.752 482.032L99.6523 475.313C99.5862 475.22 99.505 475.138 99.4119 475.086L82.2658 465.315L82.2508 465.272V461.486H89.1795C89.1795 461.486 112.727 389.272 112.311 363.094C111.994 343.534 97.4318 294.372 90.5752 272.208C90.9072 272.161 92.1361 272.581 92.4065 271.543C92.6439 270.702 94.1763 264.532 95.5764 258.169C106.809 258.781 120.091 257.835 131.299 256.591V263.085C131.299 263.154 131.326 263.214 131.338 263.279H121.733C121.209 263.279 120.785 263.703 120.785 264.228V481.677C120.785 481.832 120.832 481.974 120.898 482.103H103.775C103.764 482.081 103.767 482.055 103.755 482.032H103.752ZM460.903 400.898C460.903 396.706 464.313 393.291 468.481 393.291C472.648 393.291 476.078 396.706 476.078 400.898C476.078 405.091 472.668 408.486 468.481 408.486C464.294 408.486 460.903 405.071 460.903 400.898ZM374.516 183.397H474.32V228.953H439.179V197.625C439.179 197.101 438.756 196.677 438.231 196.677H338.427V165.552H341.328C342.394 165.552 343.26 164.686 343.26 163.618V153.864H345.595C347.06 153.864 348.254 152.67 348.254 151.202V142.62H363.746V151.202C363.746 152.668 364.939 153.864 366.405 153.864H368.74V163.618C368.74 164.684 369.605 165.552 370.669 165.552H373.57V182.45C373.57 182.973 373.993 183.397 374.516 183.397ZM328.602 146.209H346.358V151.203C346.358 151.626 346.016 151.969 345.593 151.969C345.335 151.969 329.175 151.969 329.367 151.969C328.945 151.969 328.601 151.626 328.601 151.203V146.209H328.602ZM333.594 153.864H341.364V163.618L341.327 163.655L333.594 163.618V153.864ZM378.401 163.616L378.367 163.654L370.634 163.616V153.863H378.403V163.616H378.401ZM382.63 151.967C382.411 151.967 366.211 151.967 366.404 151.967C365.982 151.967 365.639 151.624 365.639 151.202V146.207H383.393V151.202C383.393 151.624 383.051 151.967 382.629 151.967H382.63ZM609.653 79.2795V119.665H407.501V79.284C459.567 79.284 593.692 79.281 609.653 79.281V79.2795ZM229.196 100.624C229.196 81.8367 242.367 65.4823 260.598 61.4449C261.942 64.0292 263.524 66.4947 265.395 68.7616C265.727 69.1678 266.331 69.2204 266.729 68.8895C267.132 68.5555 267.19 67.9584 266.857 67.5537C262.003 61.6705 258.72 54.2319 257.909 45.9223C255.476 23.4531 273.32 1.89237 297.753 1.89237C317.006 1.89237 333.265 15.7316 336.988 33.9408C337.093 34.4553 337.603 34.7832 338.107 34.6794C338.62 34.5741 338.949 34.0717 338.845 33.5587C338.282 30.8074 337.427 28.178 336.362 25.6658C343.402 18.6469 352.692 14.7689 362.622 14.7689C383.14 14.7689 399.83 31.5069 399.83 52.0823C399.83 54.5704 399.581 57.078 399.09 59.5405C398.98 60.0985 399.377 60.6175 399.928 60.6702C411.55 61.7924 421.939 67.8531 428.693 77.3826H406.556C406.025 77.3826 405.607 77.8173 405.607 78.3348V120.614C405.607 121.139 406.031 121.563 406.555 121.563H430.21C422.944 133.423 410.006 140.723 396.06 140.723C322.66 140.472 312.21 140.723 269.245 140.723C247.163 140.723 229.198 122.733 229.198 100.624H229.196ZM291.567 151.202V146.207H309.323V151.202C309.323 151.624 308.979 151.967 308.557 151.967C308.298 151.967 292.139 151.967 292.332 151.967C291.909 151.967 291.565 151.624 291.565 151.202H291.567ZM296.559 163.616V153.863H304.329V163.616L304.292 163.654C296.22 163.615 298.913 163.628 296.559 163.616ZM401.195 211.497H301.391V165.551H304.292C305.357 165.551 306.224 164.684 306.224 163.616V153.863H308.557C310.024 153.863 311.217 152.668 311.217 151.2V142.618H326.708V151.2C326.708 152.667 327.901 153.863 329.368 153.863H331.701V163.616C331.701 164.683 332.567 165.551 333.633 165.551H336.534V197.623C336.534 198.148 336.958 198.573 337.482 198.573H437.286V228.953H402.146V212.448C402.146 211.923 401.722 211.499 401.198 211.499L401.195 211.497ZM437.283 230.848V231.793C437.283 232.318 437.707 232.742 438.23 232.742C438.753 232.742 439.178 232.318 439.178 231.793V230.848H474.319V231.793C474.319 232.318 474.742 232.742 475.265 232.742C475.788 232.742 476.213 232.318 476.213 231.793V230.848H601.482V376.466H335.48V230.848H437.283ZM426.943 425.484H507.151L521.367 458.439H441.159L426.943 425.484ZM250.851 480.73H122.68V265.177H250.851V480.73ZM221.721 249.364C222.117 249.337 222.455 249.065 222.567 248.683L247.511 162.89L265.308 166.153L241.73 254.784H145.09C148.999 254.182 168.553 253.099 221.721 249.366V249.364ZM146.882 239.737C148.914 238.6 155.992 234.159 155.289 227.874C155.097 226.162 155.482 225.409 156.871 226.471C162.08 230.468 157.34 237.479 158.829 239.269C159.98 240.648 162.66 240.451 167.272 238.631C169.321 237.823 171.038 237.977 172.372 239.078C174.937 241.196 175.844 246.539 175.296 250.626L148.334 252.475C147.862 252.269 147.38 252.037 146.884 251.782V239.737H146.882ZM194.65 177.031C194.858 177.617 194.817 178.128 194.52 178.638C193.408 180.533 189.179 182.143 181.999 183.425C180.592 180.532 178.319 178.575 175.641 177.678C182.785 175.387 193.572 174.005 194.65 177.031ZM157.873 187.009C159.88 185.719 166.467 181.585 172.321 178.99C172.365 178.997 172.404 179.017 172.449 179.019C179.28 179.163 182.72 187.45 180.939 189.281C179.804 190.454 177.788 190.48 176.441 189.342L172.356 185.893C171.795 185.413 170.888 185.749 170.802 186.525C170.793 186.621 170.517 188.92 167.789 191.048C167.376 191.37 167.302 191.967 167.623 192.379C167.946 192.792 168.54 192.865 168.953 192.545C170.861 191.056 171.8 189.445 172.26 188.292L175.219 190.791C177.348 192.587 180.456 192.501 182.297 190.601C182.572 190.319 182.743 190.043 182.853 189.767C184.17 193.111 184.789 195.978 184.272 197.007C180.569 204.362 167.051 204.851 163.917 204.865C163.838 204.629 157.478 185.843 157.872 187.009H157.873ZM64.6526 141.504C66.6251 141.427 68.3318 139.485 67.821 137.283C67.0563 133.984 66.1038 128.104 68.6232 126.778C72.1402 124.93 74.9285 131.056 74.9285 131.056V125.375C78.9217 124.393 76.0492 120.254 76.0492 120.254C76.0492 120.254 79.9357 123.619 86.3146 122.685C89.1675 130.139 85.9931 144.193 83.3851 146.116C80.2783 148.413 76.8289 146.185 76.6817 146.089C76.0432 145.672 75.2109 146.134 75.2109 146.88V150.457C71.9599 147.564 67.6092 144.309 64.6736 142.803C64.6691 142.372 64.6661 141.941 64.6526 141.502V141.504ZM38.3348 199.817C35.189 192.217 34.4048 183.778 35.8139 175.894C35.8184 175.876 36.158 173.88 36.7063 171.935C39.0499 165.677 45.3372 162.699 45.4123 162.666C46.536 162.148 45.7864 160.427 44.6266 160.939C44.4343 161.026 42.1793 162.092 39.7891 164.247C44.0647 156.199 51.0671 149.906 60.0525 150.186L80.9814 165.393C80.9814 165.393 80.9618 164.167 80.8401 162.512C92.686 173.809 104.123 189.714 108.1 196.239L105.263 204.173C105.088 204.668 105.343 205.211 105.836 205.387C106.342 205.564 106.874 205.297 107.048 204.814L109.871 196.918L155.114 184.757C170.233 229.413 153.446 179.832 162.996 208.039C160.19 209.238 150.353 213.353 138.863 217.268C143.699 212.559 142.521 207.798 142.452 207.542C142.315 207.04 141.796 206.748 141.295 206.879C140.792 207.013 140.493 207.53 140.622 208.034C140.69 208.301 142.167 214.542 132.537 219.339C120.389 223.151 107.521 226.168 99.6207 225.078C99.0318 225.007 98.5511 225.448 98.5435 226.004C98.536 226.504 98.5075 227.044 98.4849 227.572L98.3903 227.563C97.6767 225.258 94.938 216.619 90.5482 205.179C90.3619 204.692 89.818 204.445 89.3238 204.635C88.8355 204.824 88.5936 205.372 88.7799 205.861C93.3275 217.71 96.0827 226.507 96.6491 228.342L93.2509 234.643C93.0015 235.102 93.1727 235.678 93.6339 235.927C94.0891 236.175 94.6675 236.008 94.9154 235.543L98.2025 229.448L99.3383 229.56L144.853 234.102V252.717L132.37 253.572C131.874 253.606 131.488 254.02 131.488 254.518V254.628C114.327 256.53 86.5264 258.405 76.9581 252.058C70.1105 247.517 62.2969 236.19 66.2255 228.927C66.4749 228.47 66.3111 227.895 65.8529 227.641C65.3992 227.393 64.8208 227.552 64.5654 228.011C64.4588 228.204 62.8858 231.15 63.5469 235.785C52.5634 217.469 43.4157 191.865 43.2895 191.505C43.1122 191.011 42.5639 190.752 42.0801 190.928C41.5859 191.104 41.329 191.647 41.5032 192.139C47.0634 207.815 62.1798 244.532 75.9095 253.639C79.7525 256.189 86.1959 257.499 93.6565 258.042C92.6995 262.402 91.6674 266.746 90.757 270.311C89.7354 270.266 34.3462 267.558 34.0998 267.546C34.5745 265.728 35.5195 261.965 36.5726 257.049C39.2272 247.395 45.4814 242.699 45.5505 242.649C45.9727 242.342 46.0673 241.747 45.7593 241.325C45.4468 240.9 44.8579 240.808 44.4373 241.115C44.23 241.267 41.1532 243.561 38.3138 248.203C41.1051 232.592 43.294 211.827 38.3363 199.815L38.3348 199.817ZM36.6327 269.58L38.5617 269.673C25.0513 325.987 73.7326 370.531 74.1938 371.61L59.0955 461.484H65.8334C65.8319 461.68 65.8019 465.04 65.8049 464.824C65.3151 464.64 64.8539 464.975 64.8539 465.44V469.845L56.9006 465.314L56.8856 465.27V461.484H57.183L72.1687 372.273C45.7218 345.701 27.5902 307.864 36.6342 269.578L36.6327 269.58ZM42.3626 461.486H54.9911V465.349L51.384 469.72L42.3626 465.684V461.484V461.486ZM48.4215 480.463L50.1236 482.103H47.4945L48.4215 480.463Z" fill="#1C394F"/>
<path d="M135.323 301.761H238.4C238.924 301.761 239.347 301.337 239.347 300.813V276.882C239.347 276.357 238.924 275.933 238.4 275.933H135.323C134.801 275.933 134.375 276.357 134.375 276.882V300.813C134.375 301.337 134.799 301.761 135.323 301.761ZM136.271 277.829H237.453V299.864H136.271V277.829Z" fill="#1C394F"/>
<path d="M175.422 281.375C174.899 281.375 174.476 281.799 174.476 282.324V295.371C174.476 295.896 174.899 296.32 175.422 296.32C175.945 296.32 176.369 295.896 176.369 295.371V282.324C176.369 281.799 175.945 281.375 175.422 281.375Z" fill="#1C394F"/>
<path d="M184.897 281.375C184.373 281.375 183.949 281.799 183.949 282.324V295.371C183.949 295.896 184.373 296.32 184.897 296.32C185.422 296.32 185.845 295.896 185.845 295.371V282.324C185.845 281.799 185.422 281.375 184.897 281.375Z" fill="#1C394F"/>
<path d="M194.374 281.375C193.85 281.375 193.426 281.799 193.426 282.324V295.371C193.426 295.896 193.85 296.32 194.374 296.32C194.898 296.32 195.322 295.896 195.322 295.371V282.324C195.322 281.799 194.898 281.375 194.374 281.375Z" fill="#1C394F"/>
<path d="M203.849 281.375C203.326 281.375 202.903 281.799 202.903 282.324V295.371C202.903 295.896 203.326 296.32 203.849 296.32C204.372 296.32 204.797 295.896 204.797 295.371V282.324C204.797 281.799 204.373 281.375 203.849 281.375Z" fill="#1C394F"/>
<path d="M213.324 281.375C212.8 281.375 212.376 281.799 212.376 282.324V295.371C212.376 295.896 212.8 296.32 213.324 296.32C213.849 296.32 214.272 295.896 214.272 295.371V282.324C214.272 281.799 213.849 281.375 213.324 281.375Z" fill="#1C394F"/>
<path d="M222.801 281.375C222.277 281.375 221.853 281.799 221.853 282.324V295.371C221.853 295.896 222.277 296.32 222.801 296.32C223.325 296.32 223.747 295.896 223.747 295.371V282.324C223.747 281.799 223.324 281.375 222.801 281.375Z" fill="#1C394F"/>
<path d="M232.276 281.375C231.753 281.375 231.33 281.799 231.33 282.324V295.371C231.33 295.896 231.753 296.32 232.276 296.32C232.799 296.32 233.224 295.896 233.224 295.371V282.324C233.224 281.799 232.8 281.375 232.276 281.375Z" fill="#1C394F"/>
<path d="M135.323 335.321H238.4C238.924 335.321 239.347 334.897 239.347 334.372V310.44C239.347 309.917 238.924 309.493 238.4 309.493H135.323C134.801 309.493 134.375 309.917 134.375 310.44V334.372C134.375 334.897 134.799 335.321 135.323 335.321ZM136.271 311.39H237.453V333.424H136.271V311.39Z" fill="#1C394F"/>
<path d="M175.422 314.935C174.899 314.935 174.476 315.359 174.476 315.884V328.931C174.476 329.456 174.899 329.88 175.422 329.88C175.945 329.88 176.369 329.456 176.369 328.931V315.884C176.369 315.361 175.945 314.935 175.422 314.935Z" fill="#1C394F"/>
<path d="M184.897 314.935C184.373 314.935 183.949 315.359 183.949 315.884V328.931C183.949 329.456 184.373 329.88 184.897 329.88C185.422 329.88 185.845 329.456 185.845 328.931V315.884C185.845 315.361 185.422 314.935 184.897 314.935Z" fill="#1C394F"/>
<path d="M194.374 314.935C193.85 314.935 193.426 315.359 193.426 315.884V328.931C193.426 329.456 193.85 329.88 194.374 329.88C194.898 329.88 195.322 329.456 195.322 328.931V315.884C195.322 315.361 194.898 314.935 194.374 314.935Z" fill="#1C394F"/>
<path d="M203.849 314.935C203.326 314.935 202.903 315.359 202.903 315.884V328.931C202.903 329.456 203.326 329.88 203.849 329.88C204.372 329.88 204.797 329.456 204.797 328.931V315.884C204.797 315.361 204.373 314.935 203.849 314.935Z" fill="#1C394F"/>
<path d="M213.324 314.935C212.8 314.935 212.376 315.359 212.376 315.884V328.931C212.376 329.456 212.8 329.88 213.324 329.88C213.849 329.88 214.272 329.456 214.272 328.931V315.884C214.272 315.361 213.849 314.935 213.324 314.935Z" fill="#1C394F"/>
<path d="M222.801 314.935C222.277 314.935 221.853 315.359 221.853 315.884V328.931C221.853 329.456 222.277 329.88 222.801 329.88C223.325 329.88 223.747 329.456 223.747 328.931V315.884C223.747 315.361 223.324 314.935 222.801 314.935Z" fill="#1C394F"/>
<path d="M232.276 314.935C231.753 314.935 231.33 315.359 231.33 315.884V328.931C231.33 329.456 231.753 329.88 232.276 329.88C232.799 329.88 233.224 329.456 233.224 328.931V315.884C233.224 315.361 232.8 314.935 232.276 314.935Z" fill="#1C394F"/>
<path d="M135.323 368.881H238.4C238.924 368.881 239.347 368.457 239.347 367.932V343.999C239.347 343.474 238.924 343.05 238.4 343.05H135.323C134.801 343.05 134.375 343.474 134.375 343.999V367.932C134.375 368.456 134.799 368.881 135.323 368.881ZM136.271 344.948H237.453V366.984H136.271V344.948Z" fill="#1C394F"/>
<path d="M175.422 348.495C174.899 348.495 174.476 348.92 174.476 349.443V362.488C174.476 363.013 174.899 363.437 175.422 363.437C175.945 363.437 176.369 363.013 176.369 362.488V349.443C176.369 348.92 175.945 348.495 175.422 348.495Z" fill="#1C394F"/>
<path d="M184.897 348.495C184.373 348.495 183.949 348.92 183.949 349.443V362.488C183.949 363.013 184.373 363.437 184.897 363.437C185.422 363.437 185.845 363.013 185.845 362.488V349.443C185.845 348.92 185.422 348.495 184.897 348.495Z" fill="#1C394F"/>
<path d="M194.374 348.495C193.85 348.495 193.426 348.92 193.426 349.443V362.488C193.426 363.013 193.85 363.437 194.374 363.437C194.898 363.437 195.322 363.013 195.322 362.488V349.443C195.322 348.92 194.898 348.495 194.374 348.495Z" fill="#1C394F"/>
<path d="M203.849 348.495C203.326 348.495 202.903 348.92 202.903 349.443V362.488C202.903 363.013 203.326 363.437 203.849 363.437C204.372 363.437 204.797 363.013 204.797 362.488V349.443C204.797 348.92 204.373 348.495 203.849 348.495Z" fill="#1C394F"/>
<path d="M213.324 348.495C212.8 348.495 212.376 348.92 212.376 349.443V362.488C212.376 363.013 212.8 363.437 213.324 363.437C213.849 363.437 214.272 363.013 214.272 362.488V349.443C214.272 348.92 213.849 348.495 213.324 348.495Z" fill="#1C394F"/>
<path d="M222.801 348.495C222.277 348.495 221.853 348.92 221.853 349.443V362.488C221.853 363.013 222.277 363.437 222.801 363.437C223.325 363.437 223.747 363.013 223.747 362.488V349.443C223.747 348.92 223.324 348.495 222.801 348.495Z" fill="#1C394F"/>
<path d="M232.276 348.495C231.753 348.495 231.33 348.92 231.33 349.443V362.488C231.33 363.013 231.753 363.437 232.276 363.437C232.799 363.437 233.224 363.013 233.224 362.488V349.443C233.224 348.92 232.8 348.495 232.276 348.495Z" fill="#1C394F"/>
<path d="M135.323 402.44H238.4C238.924 402.44 239.347 402.016 239.347 401.491V377.559C239.347 377.036 238.924 376.612 238.4 376.612H135.323C134.801 376.612 134.375 377.036 134.375 377.559V401.491C134.375 402.016 134.799 402.44 135.323 402.44ZM136.271 378.509H237.453V400.543H136.271V378.509Z" fill="#1C394F"/>
<path d="M175.422 382.054C174.899 382.054 174.476 382.478 174.476 383.002V396.048C174.476 396.572 174.899 396.996 175.422 396.996C175.945 396.996 176.369 396.572 176.369 396.048V383.002C176.369 382.478 175.945 382.054 175.422 382.054Z" fill="#1C394F"/>
<path d="M184.897 382.054C184.373 382.054 183.949 382.478 183.949 383.002V396.048C183.949 396.572 184.373 396.996 184.897 396.996C185.422 396.996 185.845 396.572 185.845 396.048V383.002C185.845 382.478 185.422 382.054 184.897 382.054Z" fill="#1C394F"/>
<path d="M194.374 382.054C193.85 382.054 193.426 382.478 193.426 383.002V396.048C193.426 396.572 193.85 396.996 194.374 396.996C194.898 396.996 195.322 396.572 195.322 396.048V383.002C195.322 382.478 194.898 382.054 194.374 382.054Z" fill="#1C394F"/>
<path d="M203.849 382.054C203.326 382.054 202.903 382.478 202.903 383.002V396.048C202.903 396.572 203.326 396.996 203.849 396.996C204.372 396.996 204.797 396.572 204.797 396.048V383.002C204.797 382.478 204.373 382.054 203.849 382.054Z" fill="#1C394F"/>
<path d="M213.324 382.054C212.8 382.054 212.376 382.478 212.376 383.002V396.048C212.376 396.572 212.8 396.996 213.324 396.996C213.849 396.996 214.272 396.572 214.272 396.048V383.002C214.272 382.478 213.849 382.054 213.324 382.054Z" fill="#1C394F"/>
<path d="M222.801 382.054C222.277 382.054 221.853 382.478 221.853 383.002V396.048C221.853 396.572 222.277 396.996 222.801 396.996C223.325 396.996 223.747 396.572 223.747 396.048V383.002C223.747 382.478 223.324 382.054 222.801 382.054Z" fill="#1C394F"/>
<path d="M232.276 382.054C231.753 382.054 231.33 382.478 231.33 383.002V396.048C231.33 396.572 231.753 396.996 232.276 396.996C232.799 396.996 233.224 396.572 233.224 396.048V383.002C233.224 382.478 232.8 382.054 232.276 382.054Z" fill="#1C394F"/>
<path d="M135.323 436H238.4C238.924 436 239.347 435.576 239.347 435.053V411.121C239.347 410.596 238.924 410.172 238.4 410.172H135.323C134.801 410.172 134.375 410.596 134.375 411.121V435.053C134.375 435.576 134.799 436 135.323 436ZM136.271 412.069H237.453V434.103H136.271V412.069Z" fill="#1C394F"/>
<path d="M175.422 415.614C174.899 415.614 174.476 416.039 174.476 416.564V429.61C174.476 430.135 174.899 430.559 175.422 430.559C175.945 430.559 176.369 430.135 176.369 429.61V416.564C176.369 416.039 175.945 415.614 175.422 415.614Z" fill="#1C394F"/>
<path d="M184.897 415.614C184.373 415.614 183.949 416.039 183.949 416.564V429.61C183.949 430.135 184.373 430.559 184.897 430.559C185.422 430.559 185.845 430.135 185.845 429.61V416.564C185.845 416.039 185.422 415.614 184.897 415.614Z" fill="#1C394F"/>
<path d="M194.374 415.614C193.85 415.614 193.426 416.039 193.426 416.564V429.61C193.426 430.135 193.85 430.559 194.374 430.559C194.898 430.559 195.322 430.135 195.322 429.61V416.564C195.322 416.039 194.898 415.614 194.374 415.614Z" fill="#1C394F"/>
<path d="M203.849 415.614C203.326 415.614 202.903 416.039 202.903 416.564V429.61C202.903 430.135 203.326 430.559 203.849 430.559C204.372 430.559 204.797 430.135 204.797 429.61V416.564C204.797 416.039 204.373 415.614 203.849 415.614Z" fill="#1C394F"/>
<path d="M213.324 415.614C212.8 415.614 212.376 416.039 212.376 416.564V429.61C212.376 430.135 212.8 430.559 213.324 430.559C213.849 430.559 214.272 430.135 214.272 429.61V416.564C214.272 416.039 213.849 415.614 213.324 415.614Z" fill="#1C394F"/>
<path d="M222.801 415.614C222.277 415.614 221.853 416.039 221.853 416.564V429.61C221.853 430.135 222.277 430.559 222.801 430.559C223.325 430.559 223.747 430.135 223.747 429.61V416.564C223.747 416.039 223.324 415.614 222.801 415.614Z" fill="#1C394F"/>
<path d="M232.276 415.614C231.753 415.614 231.33 416.039 231.33 416.564V429.61C231.33 430.135 231.753 430.559 232.276 430.559C232.799 430.559 233.224 430.135 233.224 429.61V416.564C233.224 416.039 232.8 415.614 232.276 415.614Z" fill="#1C394F"/>
<path d="M135.323 469.56H238.4C238.924 469.56 239.347 469.136 239.347 468.611V444.68C239.347 444.156 238.924 443.732 238.4 443.732H135.323C134.801 443.732 134.375 444.156 134.375 444.68V468.611C134.375 469.136 134.799 469.56 135.323 469.56ZM136.271 445.629H237.453V467.664H136.271V445.629Z" fill="#1C394F"/>
<path d="M159.829 284.224C157.272 284.224 155.187 286.291 155.187 288.853C155.187 291.414 157.271 293.481 159.829 293.481C162.388 293.481 164.47 291.414 164.47 288.853C164.47 286.291 162.386 284.224 159.829 284.224Z" fill="#1C394F"/>
<path d="M145.128 384.891C142.571 384.891 140.505 386.978 140.505 389.539C140.505 392.101 142.569 394.148 145.128 394.148C147.686 394.148 149.768 392.08 149.768 389.539C149.768 386.999 147.685 384.891 145.128 384.891Z" fill="#1C394F"/>
<path d="M145.128 284.224C142.571 284.224 140.505 286.291 140.505 288.853C140.505 291.414 142.569 293.481 145.128 293.481C147.686 293.481 149.768 291.414 149.768 288.853C149.768 286.291 147.685 284.224 145.128 284.224Z" fill="#1C394F"/>
<path d="M145.128 418.467C142.571 418.467 140.505 420.533 140.505 423.095C140.505 425.657 142.569 427.724 145.128 427.724C147.686 427.724 149.768 425.657 149.768 423.095C149.768 420.533 147.685 418.467 145.128 418.467Z" fill="#1C394F"/>
<path d="M145.128 452.022C142.571 452.022 140.505 454.109 140.505 456.651C140.505 459.193 142.569 461.279 145.128 461.279C147.686 461.279 149.768 459.213 149.768 456.651C149.768 454.089 147.685 452.022 145.128 452.022Z" fill="#1C394F"/>
<path d="M159.829 452.022C157.272 452.022 155.187 454.109 155.187 456.651C155.187 459.193 157.271 461.279 159.829 461.279C162.388 461.279 164.47 459.213 164.47 456.651C164.47 454.089 162.386 452.022 159.829 452.022Z" fill="#1C394F"/>
<path d="M159.829 351.336C157.272 351.336 155.187 353.422 155.187 355.984C155.187 358.545 157.271 360.593 159.829 360.593C162.388 360.593 164.47 358.524 164.47 355.984C164.47 353.443 162.386 351.336 159.829 351.336Z" fill="#1C394F"/>
<path d="M145.128 351.336C142.571 351.336 140.505 353.422 140.505 355.984C140.505 358.545 142.569 360.593 145.128 360.593C147.686 360.593 149.768 358.524 149.768 355.984C149.768 353.443 147.685 351.336 145.128 351.336Z" fill="#1C394F"/>
<path d="M145.128 317.78C142.571 317.78 140.505 319.866 140.505 322.426C140.505 324.987 142.569 327.036 145.128 327.036C147.686 327.036 149.768 324.969 149.768 322.426C149.768 319.884 147.685 317.78 145.128 317.78Z" fill="#1C394F"/>
<path d="M159.829 384.891C157.272 384.891 155.187 386.978 155.187 389.539C155.187 392.101 157.271 394.148 159.829 394.148C162.388 394.148 164.47 392.08 164.47 389.539C164.47 386.999 162.386 384.891 159.829 384.891Z" fill="#1C394F"/>
<path d="M159.829 418.467C157.272 418.467 155.187 420.533 155.187 423.095C155.187 425.657 157.271 427.724 159.829 427.724C162.388 427.724 164.47 425.657 164.47 423.095C164.47 420.533 162.386 418.467 159.829 418.467Z" fill="#1C394F"/>
<path d="M159.829 317.78C157.272 317.78 155.187 319.866 155.187 322.426C155.187 324.987 157.271 327.036 159.829 327.036C162.388 327.036 164.47 324.969 164.47 322.426C164.47 319.884 162.386 317.78 159.829 317.78Z" fill="#1C394F"/>
<path d="M175.422 449.175C174.899 449.175 174.476 449.599 174.476 450.124V463.17C174.476 463.695 174.899 464.12 175.422 464.12C175.945 464.12 176.369 463.695 176.369 463.17V450.124C176.369 449.599 175.945 449.175 175.422 449.175Z" fill="#1C394F"/>
<path d="M184.897 449.175C184.373 449.175 183.949 449.599 183.949 450.124V463.17C183.949 463.695 184.373 464.12 184.897 464.12C185.422 464.12 185.845 463.695 185.845 463.17V450.124C185.845 449.599 185.422 449.175 184.897 449.175Z" fill="#1C394F"/>
<path d="M194.374 449.175C193.85 449.175 193.426 449.599 193.426 450.124V463.17C193.426 463.695 193.85 464.12 194.374 464.12C194.898 464.12 195.322 463.695 195.322 463.17V450.124C195.322 449.599 194.898 449.175 194.374 449.175Z" fill="#1C394F"/>
<path d="M203.849 449.175C203.326 449.175 202.903 449.599 202.903 450.124V463.17C202.903 463.695 203.326 464.12 203.849 464.12C204.372 464.12 204.797 463.695 204.797 463.17V450.124C204.797 449.599 204.373 449.175 203.849 449.175Z" fill="#1C394F"/>
<path d="M213.324 449.175C212.8 449.175 212.376 449.599 212.376 450.124V463.17C212.376 463.695 212.8 464.12 213.324 464.12C213.849 464.12 214.272 463.695 214.272 463.17V450.124C214.272 449.599 213.849 449.175 213.324 449.175Z" fill="#1C394F"/>
<path d="M222.801 449.175C222.277 449.175 221.853 449.599 221.853 450.124V463.17C221.853 463.695 222.277 464.12 222.801 464.12C223.325 464.12 223.747 463.695 223.747 463.17V450.124C223.747 449.599 223.324 449.175 222.801 449.175Z" fill="#1C394F"/>
<path d="M232.276 449.175C231.753 449.175 231.33 449.599 231.33 450.124V463.17C231.33 463.695 231.753 464.12 232.276 464.12C232.799 464.12 233.224 463.695 233.224 463.17V450.124C233.224 449.599 232.8 449.175 232.276 449.175Z" fill="#1C394F"/>
<path d="M372.59 24.7151C381.989 28.172 389.072 36.4093 391.078 46.2142C391.183 46.7271 391.682 47.0566 392.197 46.9528C392.709 46.8475 393.038 46.345 392.935 45.8321C390.798 35.3894 383.254 26.615 373.245 22.9326C372.751 22.7581 372.212 23.0048 372.028 23.4952C371.85 23.9886 372.101 24.5331 372.59 24.7136V24.7151Z" fill="#1C394F"/>
<path d="M244.544 77.5405C235.057 87.7651 232.925 102.42 238.485 114.621C238.704 115.102 239.269 115.307 239.74 115.092C240.217 114.875 240.426 114.312 240.21 113.836C234.964 102.319 236.972 88.4916 245.932 78.8297C246.29 78.4461 246.267 77.8459 245.883 77.4909C245.504 77.1359 244.902 77.1554 244.546 77.5405H244.544Z" fill="#1C394F"/>
<path d="M313.696 84.5534H320.744V108.814C320.744 110.048 321.729 111.033 322.959 111.033H342.359C343.571 111.033 344.557 110.046 344.557 108.814V84.5534H351.604C353.437 84.5534 354.478 82.4475 353.329 80.9688L334.365 56.917C333.453 55.8054 331.795 55.8008 330.88 56.917L311.955 80.9688C310.828 82.473 311.881 84.5534 313.698 84.5534H313.696Z" fill="#1C394F"/>
<path d="M474.184 400.898C474.184 397.75 471.627 395.188 468.481 395.188C465.335 395.188 462.797 397.748 462.797 400.898C462.797 404.048 465.354 406.589 468.481 406.589C471.607 406.589 474.184 404.029 474.184 400.898Z" fill="#1C394F"/>
<path d="M433.434 102.463C435.572 100.323 435.595 96.8117 433.434 94.6486C431.276 92.487 427.727 92.511 425.63 94.6486C423.456 96.7877 423.453 100.323 425.63 102.463C427.771 104.626 431.276 104.626 433.434 102.463Z" fill="#1C394F"/>
<path d="M415.665 113.825H445.274V85.1251H415.665V113.825ZM424.284 93.3008C427.182 90.399 431.881 90.399 434.779 93.3008C437.452 95.9769 437.635 100.198 435.386 103.089L438.493 106.2C438.871 106.561 438.871 107.167 438.493 107.546C438.14 107.9 437.519 107.9 437.166 107.546L434.059 104.435C433.894 104.563 433.724 104.684 433.55 104.795C430.708 106.63 426.806 106.335 424.284 103.81C421.401 100.923 421.354 96.2356 424.284 93.3008Z" fill="#1C394F"/>
<path d="M457.418 113.972H603.027C603.552 113.972 603.975 113.548 603.975 113.023V85.9163C603.975 85.3913 603.552 84.9671 603.027 84.9671H457.418C456.895 84.9671 456.471 85.3913 456.471 85.9163V113.023C456.471 113.548 456.895 113.972 457.418 113.972ZM458.364 86.8655H602.079V112.076H458.364V86.8655Z" fill="#1C394F"/>
<path d="M587.064 98.5221H473.381C472.858 98.5221 472.433 98.9463 472.433 99.4713C472.433 99.9963 472.857 100.419 473.381 100.419H587.064C587.588 100.419 588.012 99.9948 588.012 99.4713C588.012 98.9478 587.588 98.5221 587.064 98.5221Z" fill="#1C394F"/>
<path d="M111.094 206.217C111.605 206.405 112.134 206.142 112.315 205.665L113.652 202.121C113.837 201.632 113.591 201.083 113.101 200.898C112.605 200.716 112.064 200.96 111.88 201.45L110.543 204.994C110.358 205.485 110.604 206.032 111.094 206.217Z" fill="#1C394F"/>
<path d="M98.1289 237.643C98.6067 237.882 99.1685 237.683 99.3999 237.222L101.028 233.983C101.263 233.517 101.076 232.945 100.608 232.71C100.142 232.476 99.5711 232.661 99.3368 233.132L97.7083 236.37C97.4739 236.837 97.6602 237.408 98.1289 237.643Z" fill="#1C394F"/>
<path d="M498.194 59.9692C499.595 59.6307 500.746 58.4784 501.084 57.075C501.802 54.089 499.182 51.4746 496.202 52.1936C494.801 52.5306 493.654 53.6798 493.317 55.0818C492.601 58.0648 495.212 60.6897 498.192 59.9692H498.194Z" fill="#1C394F"/>
<path d="M547.117 154.336C547.117 156.551 548.906 158.347 551.118 158.347C553.329 158.347 555.123 156.549 555.123 154.336C555.123 152.124 553.329 150.331 551.118 150.331C548.906 150.331 547.117 152.122 547.117 154.336Z" fill="#1C394F"/>
<path d="M292.169 290.54L298.981 285.617C299.404 285.312 299.501 284.719 299.194 284.293C298.888 283.869 298.296 283.771 297.872 284.08L291.061 289.003C290.637 289.309 290.541 289.901 290.847 290.327C291.155 290.753 291.749 290.846 292.169 290.54Z" fill="#1C394F"/>
<path d="M306.148 412.081C307.55 411.742 308.701 410.592 309.039 409.187C309.757 406.201 307.137 403.586 304.158 404.305C302.758 404.642 301.61 405.792 301.273 407.194C300.557 410.176 303.168 412.801 306.148 412.081Z" fill="#1C394F"/>
<path d="M286.465 331.287C286.226 331.753 286.414 332.325 286.88 332.561C290.186 334.243 293.331 336.314 296.23 338.716C296.637 339.052 297.232 338.994 297.564 338.593C297.899 338.19 297.842 337.591 297.439 337.257C294.432 334.763 291.167 332.615 287.737 330.871C287.273 330.632 286.701 330.817 286.465 331.287Z" fill="#1C394F"/>
<path d="M187.616 156.482C189.828 156.482 191.622 154.684 191.622 152.471C191.622 150.258 189.826 148.465 187.616 148.465C185.406 148.465 183.616 150.257 183.616 152.471C183.616 154.685 185.405 156.482 187.616 156.482Z" fill="#1C394F"/>
<path d="M485.347 170.852C485.347 173.066 487.137 174.862 489.348 174.862C491.559 174.862 493.353 173.066 493.353 170.852C493.353 168.638 491.558 166.846 489.348 166.846C487.138 166.846 485.347 168.638 485.347 170.852Z" fill="#1C394F"/>
<path d="M443.982 130.54C443.743 131.007 443.931 131.578 444.397 131.815C447.704 133.496 450.848 135.568 453.747 137.97C454.155 138.305 454.749 138.248 455.081 137.847C455.416 137.444 455.359 136.845 454.958 136.511C451.951 134.017 448.686 131.869 445.256 130.125C444.792 129.888 444.22 130.071 443.984 130.54H443.982Z" fill="#1C394F"/>
<path d="M416.225 15.9438C417.627 15.6053 418.778 14.4545 419.116 13.0495C419.835 10.0636 417.214 7.44915 414.235 8.16819C412.835 8.50514 411.687 9.65441 411.35 11.0564C410.634 14.0393 413.245 16.6643 416.225 15.9438Z" fill="#1C394F"/>
<path d="M571.764 45.5793L578.576 40.6544C578.999 40.349 579.095 39.7563 578.789 39.3306C578.482 38.9064 577.891 38.8086 577.467 39.117L570.655 44.042C570.232 44.3473 570.136 44.94 570.442 45.3657C570.75 45.7914 571.343 45.8847 571.764 45.5793Z" fill="#1C394F"/>
<path d="M572.239 209.961C571.727 209.824 571.216 210.139 571.088 210.647C570.959 211.154 571.265 211.67 571.773 211.8C575.098 212.646 578.262 213.687 581.172 214.894C581.639 215.091 582.207 214.876 582.41 214.381C582.609 213.895 582.38 213.341 581.897 213.141C578.902 211.9 575.654 210.831 572.24 209.963L572.239 209.961Z" fill="#1C394F"/>
<path d="M616.4 189.396L609.587 194.32C609.163 194.625 609.067 195.218 609.373 195.644C609.681 196.069 610.275 196.163 610.695 195.857L617.508 190.934C617.932 190.628 618.028 190.036 617.722 189.61C617.415 189.186 616.82 189.088 616.4 189.396Z" fill="#1C394F"/>
<path d="M139.942 110.839L146.755 105.916C147.178 105.61 147.274 105.018 146.968 104.592C146.662 104.168 146.07 104.07 145.646 104.378L138.833 109.302C138.409 109.607 138.313 110.2 138.62 110.625C138.928 111.051 139.521 111.144 139.942 110.839Z" fill="#1C394F"/>
<path d="M157.337 61.5908C160.644 63.2695 163.788 65.3394 166.689 67.7432C167.089 68.0772 167.688 68.0245 168.022 67.6169C168.357 67.2152 168.3 66.6165 167.895 66.2826C164.889 63.7885 161.626 61.6419 158.196 59.897C157.726 59.6653 157.163 59.8473 156.922 60.3137C156.685 60.78 156.873 61.3531 157.339 61.5893L157.337 61.5908Z" fill="#1C394F"/>
<path d="M436.362 352.431C434.151 352.431 432.362 354.222 432.362 356.437C432.362 358.651 434.151 360.447 436.362 360.447C438.574 360.447 440.368 358.651 440.368 356.437C440.368 354.222 438.574 352.431 436.362 352.431Z" fill="#1C394F"/>
<path d="M362.233 312.237C363.992 313.359 365.713 314.613 367.349 315.967C367.741 316.294 368.342 316.251 368.683 315.839C369.016 315.436 368.958 314.839 368.555 314.503C366.86 313.102 365.077 311.799 363.25 310.636C362.813 310.358 362.227 310.484 361.942 310.926C361.661 311.369 361.79 311.954 362.232 312.237H362.233Z" fill="#1C394F"/>
</g>
<defs>
<clipPath id="clip0_126_13558">
<rect width="646" height="484" fill="white"/>
</clipPath>
</defs>
</svg>