<svg width="48" height="48" viewBox="0 0 48 48" fill="none" xmlns="http://www.w3.org/2000/svg">
<g clip-path="url(#clip0_2081_122111)">
<path d="M47.9909 23.3589C46.5155 10.5991 37.9014 1.95361 24.745 0.0377372C23.9029 -0.0847941 23.1594 0.596675 23.1594 1.44774V10.9203C26.7547 11.243 30.0771 12.8031 32.6672 15.3931C35.2572 17.9832 36.8173 21.3244 37.14 24.9196H46.575C47.4089 24.9196 48.0866 24.1874 47.9909 23.3589ZM27.8968 25.1386C27.3 22.6818 25.2848 20.6668 22.828 20.0699C17.6039 18.8008 12.9903 23.4142 14.2594 28.6385C14.8563 31.0953 16.8713 33.1105 19.3281 33.7073C24.5524 34.9763 29.1659 30.3628 27.8968 25.1386ZM21.0782 31.1072C18.7519 31.1072 16.8594 29.2148 16.8594 26.8885C16.8594 24.5622 18.7519 22.6697 21.0782 22.6697C23.4045 22.6697 25.2969 24.5622 25.2969 26.8885C25.2969 29.2148 23.4045 31.1072 21.0782 31.1072Z" fill="#F2A41E"/>
<path d="M21.0781 25.4844C20.3022 25.4844 19.6719 26.1147 19.6719 26.8906C19.6719 27.6665 20.3022 28.2969 21.0781 28.2969C21.854 28.2969 22.4844 27.6665 22.4844 26.8906C22.4844 26.1147 21.854 25.4844 21.0781 25.4844Z" fill="black"/>
<path d="M35.1257 28.296C34.3365 28.2959 33.7525 27.6354 33.7497 26.8463C33.7386 23.4882 32.4212 20.3288 30.0379 17.9455C27.6546 15.5622 24.4951 14.2448 21.1371 14.2334C20.348 14.2309 19.6874 13.6468 19.6874 12.8578V5.86719C8.47642 6.61166 -0.372928 16.1286 0.0121035 27.6107C0.37726 38.5007 9.48264 47.6062 20.3727 47.9713C31.8549 48.3564 41.3717 39.507 42.1163 28.296H35.1257ZM10.1556 15.9516C10.7048 15.4024 11.5951 15.4024 12.1443 15.9516C12.6936 16.5008 12.6936 17.3911 12.1443 17.9403C11.5951 18.4895 10.7048 18.4895 10.1556 17.9403C9.60638 17.3911 9.60648 16.5008 10.1556 15.9516ZM7.03117 28.2959C6.25454 28.2959 5.62492 27.6663 5.62492 26.8897C5.62492 26.1129 6.25454 25.4834 7.03117 25.4834C7.80779 25.4834 8.43742 26.1129 8.43742 26.8897C8.43742 27.6663 7.80779 28.2959 7.03117 28.2959ZM12.1443 37.8278C11.5951 38.377 10.7048 38.377 10.1556 37.8278C9.60638 37.2785 9.60638 36.3881 10.1556 35.8389C10.7048 35.2897 11.5951 35.2897 12.1443 35.8389C12.6936 36.3881 12.6936 37.2785 12.1443 37.8278ZM21.0937 42.3584C20.317 42.3584 19.6874 41.7288 19.6874 40.9522C19.6874 40.1754 20.317 39.5459 21.0937 39.5459C21.8703 39.5459 22.4999 40.1754 22.4999 40.9522C22.4999 41.7288 21.8703 42.3584 21.0937 42.3584ZM23.0228 36.5487C16.1002 37.8717 10.1116 31.8832 11.4344 24.9606C12.1696 21.1132 15.3173 17.9657 19.1645 17.2305C26.0871 15.9077 32.0756 21.8963 30.7528 28.8187C30.0176 32.6661 26.8701 35.8135 23.0228 36.5487ZM32.0318 37.8278C31.4826 38.377 30.5922 38.377 30.043 37.8278C29.4938 37.2785 29.4938 36.3881 30.043 35.8389C30.5922 35.2897 31.4826 35.2897 32.0318 35.8389C32.5809 36.3881 32.5809 37.2785 32.0318 37.8278Z" fill="black"/>
</g>
<defs>
<clipPath id="clip0_2081_122111">
<rect width="48" height="48" fill="white"/>
</clipPath>
</defs>
</svg>
