<svg width="56" height="56" viewBox="0 0 56 56" fill="none" xmlns="http://www.w3.org/2000/svg">
<g id="env 2" clip-path="url(#clip0_4394_299727)">
<g id="Clip path group">
<mask id="mask0_4394_299727" style="mask-type:luminance" maskUnits="userSpaceOnUse" x="-1" y="0" width="57" height="56">
<g id="clip0_4225_117679">
<path id="Vector" d="M55.6666 0H-0.333374V56H55.6666V0Z" fill="white"/>
</g>
</mask>
<g mask="url(#mask0_4394_299727)">
<g id="Group">
<path id="Vector_2" d="M13.0636 23.02C12.7396 23.15 12.457 23.366 12.2464 23.6446C12.0357 23.9231 11.9049 24.2537 11.868 24.601C11.8223 25.0677 11.7999 25.5736 11.7999 26.1336C11.7999 26.6936 11.8222 27.1994 11.867 27.6558C11.9028 28.0054 12.0334 28.3385 12.2447 28.6192C12.4562 28.8998 12.7403 29.1173 13.0664 29.2481L15.3354 30.1544C15.6475 31.2603 16.0892 32.3254 16.6514 33.3277L15.6919 35.5733C15.5485 35.8945 15.4981 36.2497 15.5466 36.5982C15.5952 36.9467 15.7406 37.2746 15.9663 37.5445C16.2528 37.8926 16.5776 38.2482 17.0004 38.6804C17.4186 39.0892 17.7742 39.414 18.111 39.6912C18.3818 39.9188 18.711 40.0658 19.0612 40.1153C19.4114 40.1648 19.7684 40.1148 20.0916 39.9712L22.3466 39.0136C23.3489 39.5756 24.414 40.0173 25.5199 40.3296L26.4271 42.6013C26.5572 42.9254 26.7731 43.2079 27.0516 43.4185C27.3302 43.6292 27.6609 43.7599 28.0082 43.7969C28.4748 43.8426 28.976 43.865 29.5406 43.865C30.1054 43.865 30.6066 43.8426 31.063 43.7978C31.4125 43.7622 31.7456 43.6315 32.0263 43.4201C32.3069 43.2087 32.5245 42.9246 32.6552 42.5985L33.5615 40.3296C34.6674 40.0173 35.7325 39.5756 36.7348 39.0136L38.9832 39.973C39.3046 40.1161 39.6596 40.1663 40.0081 40.1177C40.3564 40.0693 40.6843 39.924 40.9544 39.6986C41.3026 39.4121 41.6582 39.0873 42.0903 38.6645C42.4429 38.3088 42.7802 37.9383 43.1011 37.5538C43.329 37.2833 43.4762 36.954 43.5258 36.6038C43.5752 36.2535 43.5251 35.8964 43.3811 35.5733L42.4132 33.3249C42.9753 32.3226 43.417 31.2575 43.7292 30.1516L46.001 29.2444C46.325 29.1142 46.6076 28.8983 46.8182 28.6198C47.0289 28.3412 47.1597 28.0105 47.1966 27.6633C47.2423 27.1966 47.2647 26.6954 47.2647 26.1308C47.2647 25.5661 47.2422 25.0649 47.1975 24.6085C47.1618 24.2589 47.0312 23.9258 46.8198 23.6451C46.6084 23.3646 46.3242 23.147 45.9982 23.0162L43.7292 22.11C43.417 21.0041 42.9753 19.9389 42.4132 18.9366L43.3727 16.6882C43.5161 16.367 43.5664 16.0118 43.5179 15.6633C43.4694 15.3148 43.324 14.987 43.0983 14.717C42.7701 14.3236 42.4252 13.9447 42.0642 13.5812C41.7086 13.2286 41.338 12.8913 40.9535 12.5704C40.683 12.3423 40.3537 12.1951 40.0035 12.1455C39.6532 12.096 39.296 12.1462 38.973 12.2904L36.7246 13.2536C35.7223 12.6914 34.6571 12.2497 33.5512 11.9376L32.644 9.66579C32.5139 9.34173 32.298 9.0592 32.0194 8.84856C31.7409 8.63792 31.4103 8.50712 31.063 8.47022C30.0467 8.38061 29.0245 8.38061 28.0082 8.47022C27.6586 8.50591 27.3254 8.63652 27.0449 8.84791C26.7642 9.05931 26.5467 9.34344 26.4159 9.66956L25.5096 11.9385C24.4037 12.2507 23.3385 12.6924 22.3363 13.2545L20.0935 12.2922C19.7722 12.1489 19.4171 12.0986 19.0686 12.1472C18.7201 12.1956 18.3923 12.341 18.1223 12.5666C17.7742 12.8532 17.4186 13.178 16.9864 13.6008C16.6338 13.9564 16.2965 14.3269 15.9756 14.7114C15.7476 14.9819 15.6005 15.3112 15.551 15.6615C15.5014 16.0118 15.5515 16.3688 15.6956 16.692L16.6532 18.9469C16.0912 19.9491 15.6494 21.0143 15.3372 22.1202L13.0636 23.02ZM17.0238 23.0293C17.3322 21.7817 17.8275 20.5878 18.4928 19.4882C18.5691 19.3616 18.6143 19.2186 18.6245 19.0711C18.6347 18.9236 18.6097 18.7757 18.5516 18.6398L17.4046 15.9117C17.691 15.5645 18.0028 15.2313 18.3062 14.9205C18.6333 14.59 18.9852 14.2852 19.359 14.0086L22.0395 15.152C22.1756 15.2096 22.3233 15.2343 22.4707 15.2241C22.6182 15.2138 22.7611 15.169 22.8878 15.0932C23.9877 14.4288 25.1815 13.9344 26.429 13.6269C26.5729 13.5913 26.7064 13.522 26.8182 13.4246C26.93 13.3272 27.0171 13.2046 27.072 13.0669L28.1855 10.3285C29.0927 10.2265 30.0092 10.2381 30.9136 10.363L31.9944 13.0669C32.0494 13.2046 32.1364 13.3272 32.2482 13.4246C32.3601 13.522 32.4935 13.5913 32.6375 13.6269C33.8851 13.9353 35.0789 14.4306 36.1786 15.096C36.3053 15.1718 36.4483 15.2166 36.5957 15.2269C36.7431 15.2371 36.8909 15.2124 37.027 15.1548L39.7551 14.0077C40.1023 14.2952 40.4355 14.606 40.7463 14.9093C41.077 15.2362 41.3818 15.5881 41.6582 15.9621L40.5148 18.6426C40.4567 18.7785 40.4318 18.9264 40.442 19.0739C40.4522 19.2214 40.4973 19.3644 40.5736 19.491C41.2377 20.5899 41.732 21.7827 42.0399 23.0293C42.0755 23.1733 42.1448 23.3067 42.2421 23.4185C42.3395 23.5303 42.4621 23.6173 42.5999 23.6724L45.3382 24.7858C45.3774 25.189 45.3971 25.6258 45.3971 26.1336C45.405 26.5955 45.3738 27.0573 45.3038 27.514L42.5999 28.5948C42.4621 28.6497 42.3395 28.7368 42.2421 28.8486C42.1448 28.9604 42.0755 29.0938 42.0399 29.2378C41.7314 30.4854 41.2361 31.6793 40.5708 32.7789C40.4945 32.9055 40.4494 33.0485 40.4392 33.196C40.429 33.3435 40.4539 33.4913 40.512 33.6273L41.6666 36.3554C41.38 36.7026 41.0683 37.0358 40.765 37.3466C40.4381 37.6773 40.0861 37.9822 39.7122 38.2585L37.0316 37.1152C36.8957 37.057 36.7478 37.0321 36.6003 37.0423C36.4529 37.0525 36.3099 37.0977 36.1832 37.174C35.082 37.8387 33.8866 38.3331 32.6375 38.6402C32.4935 38.6757 32.3601 38.7451 32.2482 38.8425C32.1364 38.9399 32.0494 39.0625 31.9944 39.2002L30.881 41.9386C29.9737 42.0406 29.0572 42.0291 28.1528 41.9041L27.072 39.2002C27.0171 39.0625 26.93 38.9399 26.8182 38.8425C26.7064 38.7451 26.5729 38.6757 26.429 38.6402C25.1813 38.3317 23.9875 37.8365 22.8878 37.1712C22.7422 37.0836 22.5754 37.0374 22.4054 37.0377C22.2796 37.0375 22.1551 37.0629 22.0395 37.1124L19.3114 38.2669C18.9687 37.9802 18.638 37.6793 18.3202 37.3653C17.9895 37.0384 17.6846 36.6865 17.4083 36.3125L18.5516 33.632C18.6097 33.496 18.6347 33.3482 18.6245 33.2007C18.6143 33.0531 18.5691 32.9102 18.4928 32.7836C17.828 31.6824 17.3337 30.4869 17.0266 29.2378C16.991 29.0938 16.9217 28.9604 16.8243 28.8486C16.7269 28.7368 16.6042 28.6497 16.4666 28.5948L13.7282 27.4813C13.6843 27.0334 13.6638 26.5836 13.6666 26.1336C13.6585 25.6716 13.6898 25.2098 13.7599 24.7532L16.4666 23.6724C16.6042 23.6173 16.7269 23.5303 16.8243 23.4185C16.9217 23.3067 16.991 23.1733 17.0266 23.0293H17.0238Z" fill="#F2A41E"/>
<path id="Vector_3" d="M29.507 37.3335C31.7221 37.3335 33.8876 36.6766 35.7294 35.4459C37.5712 34.2152 39.0067 32.4661 39.8545 30.4195C40.7021 28.373 40.924 26.121 40.4918 23.9485C40.0596 21.7759 38.9929 19.7803 37.4266 18.2139C35.8602 16.6475 33.8646 15.5808 31.692 15.1487C29.5194 14.7165 27.2674 14.9383 25.2209 15.786C23.1744 16.6337 21.4251 18.0693 20.1945 19.9111C18.9638 21.7529 18.307 23.9183 18.307 26.1335C18.3102 29.1029 19.4912 31.9498 21.5909 34.0495C23.6906 36.1493 26.5376 37.3303 29.507 37.3335ZM29.507 16.8001C31.3529 16.8001 33.1574 17.3475 34.6923 18.3731C36.2271 19.3986 37.4234 20.8563 38.1299 22.5617C38.8362 24.2672 39.0211 26.1438 38.661 27.9543C38.3008 29.7648 37.4119 31.4279 36.1066 32.7332C34.8013 34.0384 33.1383 34.9273 31.3278 35.2874C29.5173 35.6476 27.6407 35.4628 25.9353 34.7563C24.2298 34.0499 22.7721 32.8537 21.7466 31.3188C20.721 29.7839 20.1736 27.9794 20.1736 26.1335C20.1766 23.659 21.1609 21.2868 22.9106 19.5371C24.6603 17.7873 27.0325 16.8031 29.507 16.8001Z" fill="#F2A41E"/>
<path id="Vector_4" d="M29.5071 32.6669C30.7993 32.6669 32.0625 32.2838 33.1369 31.5659C34.2112 30.848 35.0486 29.8276 35.5431 28.6339C36.0377 27.44 36.1671 26.1264 35.915 24.8591C35.6629 23.5916 35.0406 22.4275 34.1269 21.5138C33.2132 20.6002 32.049 19.9779 30.7817 19.7258C29.5144 19.4737 28.2008 19.6031 27.0069 20.0976C25.8131 20.5921 24.7928 21.4295 24.0748 22.5039C23.357 23.5783 22.9738 24.8414 22.9738 26.1337C22.9761 27.8657 23.6651 29.5262 24.8898 30.751C26.1146 31.9757 27.7751 32.6647 29.5071 32.6669ZM29.5071 21.4669C30.4302 21.4669 31.3323 21.7407 32.0998 22.2534C32.8672 22.7662 33.4654 23.495 33.8185 24.3477C34.1718 25.2005 34.2642 26.1388 34.0842 27.044C33.9041 27.9493 33.4597 28.7808 32.807 29.4334C32.1543 30.0861 31.3228 30.5305 30.4176 30.7106C29.5123 30.8907 28.574 30.7983 27.7213 30.4451C26.8686 30.0919 26.1397 29.4938 25.6269 28.7263C25.1142 27.9589 24.8405 27.0566 24.8405 26.1337C24.8419 24.8964 25.3341 23.7103 26.2089 22.8354C27.0838 21.9606 28.2699 21.4685 29.5071 21.4669Z" fill="#F2A41E"/>
<path id="Vector_5" d="M55.6666 26.1334C55.5956 19.282 52.8367 12.7325 47.984 7.89527C43.1313 3.0581 36.5729 0.320231 29.7213 0.271282C22.8697 0.222334 16.2729 2.86621 11.3516 7.63357C6.4302 12.4009 3.57801 18.9103 3.4092 25.7601L1.26254 23.6134C1.17825 23.5185 1.07549 23.4417 0.960522 23.3878C0.845558 23.334 0.720813 23.3042 0.593921 23.3002C0.467029 23.2962 0.340657 23.3181 0.222534 23.3647C0.104411 23.4112 -0.00297847 23.4813 -0.093066 23.5708C-0.183154 23.6602 -0.254045 23.7671 -0.301404 23.8849C-0.348762 24.0027 -0.371592 24.1289 -0.368497 24.2558C-0.365402 24.3827 -0.336447 24.5076 -0.283403 24.623C-0.23036 24.7384 -0.154342 24.8417 -0.060001 24.9266L3.67334 28.6599C3.84835 28.8349 4.08571 28.9332 4.3332 28.9332C4.58069 28.9332 4.81804 28.8349 4.99306 28.6599L8.7264 24.9266C8.89642 24.7506 8.99049 24.5148 8.98836 24.2701C8.98624 24.0254 8.88807 23.7913 8.71502 23.6183C8.54198 23.4452 8.30789 23.3471 8.06318 23.345C7.81845 23.3428 7.5827 23.4369 7.40666 23.6069L5.2768 25.7367C5.38761 19.6877 7.75834 13.8992 11.9225 9.51022C16.0867 5.12123 21.7426 2.44966 27.7774 2.02119C33.8123 1.59271 39.789 3.43838 44.5315 7.19498C49.2739 10.9516 52.4388 16.3471 53.4031 22.3198C54.3674 28.2925 53.0615 34.4099 49.7423 39.4681C46.4231 44.5264 41.331 48.1592 35.4679 49.6517C29.6049 51.1443 23.3955 50.3885 18.0617 47.5331C12.7278 44.6777 8.65585 39.9294 6.64693 34.2226C6.55953 33.996 6.38718 33.8122 6.16651 33.7107C5.94583 33.609 5.69423 33.5974 5.46516 33.6784C5.23608 33.7593 5.0476 33.9263 4.93976 34.1441C4.83191 34.3618 4.8132 34.6129 4.8876 34.8442C6.13297 38.3537 8.11331 41.557 10.6962 44.2396C13.279 46.9223 16.405 49.0226 19.8648 50.4001H0.599865C0.35233 50.4001 0.114933 50.4984 -0.0601014 50.6734C-0.235135 50.8485 -0.333468 51.0859 -0.333468 51.3334C-0.333468 51.5809 -0.235135 51.8183 -0.0601014 51.9934C0.114933 52.1684 0.35233 52.2667 0.599865 52.2667H52.4801L50.34 54.4069C50.2509 54.493 50.1797 54.5959 50.1309 54.7099C50.0819 54.8237 50.0562 54.9461 50.0551 55.0701C50.054 55.194 50.0777 55.3169 50.1246 55.4316C50.1715 55.5463 50.2408 55.6506 50.3284 55.7382C50.4161 55.8258 50.5203 55.8951 50.635 55.9421C50.7497 55.989 50.8726 56.0126 50.9965 56.0115C51.1204 56.0104 51.2429 55.9846 51.3568 55.9358C51.4706 55.8868 51.5737 55.8158 51.6598 55.7267L55.3931 51.9933C55.568 51.8183 55.6663 51.5809 55.6663 51.3334C55.6663 51.0859 55.568 50.8486 55.3931 50.6735L51.6598 46.9402C51.4837 46.7702 51.2479 46.6761 51.0032 46.6782C50.7585 46.6803 50.5244 46.7785 50.3514 46.9516C50.1783 47.1246 50.0802 47.3587 50.0781 47.6035C50.0759 47.8481 50.17 48.0839 50.34 48.2599L52.4801 50.4001H39.2137C44.0654 48.4601 48.2252 45.1121 51.1575 40.7871C54.0898 36.4623 55.6602 31.3587 55.6666 26.1334Z" fill="black"/>
</g>
</g>
</g>
</g>
<defs>
<clipPath id="clip0_4394_299727">
<rect width="56" height="56" fill="white" transform="translate(-0.333374)"/>
</clipPath>
</defs>
</svg>
