<svg width="60" height="60" viewBox="0 0 60 60" fill="none" xmlns="http://www.w3.org/2000/svg">
<g id="Frame" clip-path="url(#clip0_7201_298784)">
<g id="Group">
<path id="Vector" d="M59.513 10.539C59.2715 10.0133 58.9406 9.53353 58.535 9.121L50.879 1.465C50.4665 1.05942 49.9867 0.728513 49.461 0.487C49.4287 0.467079 49.3954 0.449048 49.361 0.433C48.726 0.149216 48.0385 0.00171052 47.343 0L19 0C18.2044 0 17.4413 0.31607 16.8787 0.87868C16.3161 1.44129 16 2.20435 16 3V31H4C2.93913 31 1.92172 31.4214 1.17157 32.1716C0.421428 32.9217 0 33.9391 0 35L0 49C0 50.0609 0.421428 51.0783 1.17157 51.8284C1.92172 52.5786 2.93913 53 4 53H16V57C16 57.7957 16.3161 58.5587 16.8787 59.1213C17.4413 59.6839 18.2044 60 19 60H57C57.7957 60 58.5587 59.6839 59.1213 59.1213C59.6839 58.5587 60 57.7957 60 57V12.657C59.9981 11.9618 59.8507 11.2747 59.567 10.64C59.551 10.6053 59.533 10.5716 59.513 10.539ZM56.586 10H51C50.7348 10 50.4804 9.89464 50.2929 9.70711C50.1054 9.51957 50 9.26522 50 9V3.414L56.586 10ZM2 49V35C2 34.4696 2.21071 33.9609 2.58579 33.5858C2.96086 33.2107 3.46957 33 4 33H36C36.5304 33 37.0391 33.2107 37.4142 33.5858C37.7893 33.9609 38 34.4696 38 35V49C38 49.5304 37.7893 50.0391 37.4142 50.4142C37.0391 50.7893 36.5304 51 36 51H4C3.46957 51 2.96086 50.7893 2.58579 50.4142C2.21071 50.0391 2 49.5304 2 49ZM58 57C58 57.2652 57.8946 57.5196 57.7071 57.7071C57.5196 57.8946 57.2652 58 57 58H19C18.7348 58 18.4804 57.8946 18.2929 57.7071C18.1054 57.5196 18 57.2652 18 57V53H36C37.0609 53 38.0783 52.5786 38.8284 51.8284C39.5786 51.0783 40 50.0609 40 49V35C40 33.9391 39.5786 32.9217 38.8284 32.1716C38.0783 31.4214 37.0609 31 36 31H18V3C18 2.73478 18.1054 2.48043 18.2929 2.29289C18.4804 2.10536 18.7348 2 19 2H47.343C47.5642 2.0017 47.7845 2.02786 48 2.078V9C48 9.79565 48.3161 10.5587 48.8787 11.1213C49.4413 11.6839 50.2044 12 51 12H57.922C57.9721 12.2155 57.9983 12.4358 58 12.657V57Z" fill="black"/>
<path id="Vector_2" d="M11.929 36.629C11.855 36.4431 11.7268 36.2837 11.5612 36.1714C11.3956 36.0591 11.2001 35.9991 11 35.9991C10.7999 35.9991 10.6044 36.0591 10.4388 36.1714C10.2732 36.2837 10.1451 36.4431 10.071 36.629L6.07101 46.629C5.97261 46.8754 5.97612 47.1508 6.08077 47.3946C6.18541 47.6384 6.38262 47.8306 6.62901 47.929C6.87539 48.0274 7.15077 48.0239 7.39457 47.9192C7.63837 47.8146 7.83061 47.6174 7.92901 47.371L8.87701 45H13.123L14.071 47.371C14.1452 47.5567 14.2734 47.7159 14.439 47.8281C14.6046 47.9402 14.8 48.0001 15 48C15.1271 48.0005 15.2531 47.9764 15.371 47.929C15.493 47.8803 15.6043 47.8081 15.6984 47.7164C15.7925 47.6247 15.8676 47.5154 15.9194 47.3946C15.9712 47.2739 15.9987 47.1441 16.0004 47.0128C16.002 46.8814 15.9778 46.751 15.929 46.629L11.929 36.629ZM9.67701 43L11 39.692L12.323 43H9.67701ZM19 48C19.2652 48 19.5196 47.8946 19.7071 47.7071C19.8947 47.5196 20 47.2652 20 47V44H21C22.0609 44 23.0783 43.5786 23.8284 42.8284C24.5786 42.0783 25 41.0609 25 40C25 38.9391 24.5786 37.9217 23.8284 37.1716C23.0783 36.4214 22.0609 36 21 36H19C18.7348 36 18.4804 36.1054 18.2929 36.2929C18.1054 36.4804 18 36.7348 18 37V47C18 47.2652 18.1054 47.5196 18.2929 47.7071C18.4804 47.8946 18.7348 48 19 48ZM23 40C23 40.5304 22.7893 41.0391 22.4142 41.4142C22.0391 41.7893 21.5304 42 21 42H20V38H21C21.5304 38 22.0391 38.2107 22.4142 38.5858C22.7893 38.9609 23 39.4696 23 40ZM27 46C26.7348 46 26.4804 46.1054 26.2929 46.2929C26.1054 46.4804 26 46.7348 26 47C26 47.2652 26.1054 47.5196 26.2929 47.7071C26.4804 47.8946 26.7348 48 27 48H31C31.2652 48 31.5196 47.8946 31.7071 47.7071C31.8947 47.5196 32 47.2652 32 47C32 46.7348 31.8947 46.4804 31.7071 46.2929C31.5196 46.1054 31.2652 46 31 46H30V38H31C31.2652 38 31.5196 37.8946 31.7071 37.7071C31.8947 37.5196 32 37.2652 32 37C32 36.7348 31.8947 36.4804 31.7071 36.2929C31.5196 36.1054 31.2652 36 31 36H27C26.7348 36 26.4804 36.1054 26.2929 36.2929C26.1054 36.4804 26 36.7348 26 37C26 37.2652 26.1054 37.5196 26.2929 37.7071C26.4804 37.8946 26.7348 38 27 38H28V46H27ZM22 12H42C42.2652 12 42.5196 11.8946 42.7071 11.7071C42.8946 11.5196 43 11.2652 43 11C43 10.7348 42.8946 10.4804 42.7071 10.2929C42.5196 10.1054 42.2652 10 42 10H22C21.7348 10 21.4804 10.1054 21.2929 10.2929C21.1054 10.4804 21 10.7348 21 11C21 11.2652 21.1054 11.5196 21.2929 11.7071C21.4804 11.8946 21.7348 12 22 12ZM22 17H49C49.2652 17 49.5196 16.8946 49.7071 16.7071C49.8946 16.5196 50 16.2652 50 16C50 15.7348 49.8946 15.4804 49.7071 15.2929C49.5196 15.1054 49.2652 15 49 15H22C21.7348 15 21.4804 15.1054 21.2929 15.2929C21.1054 15.4804 21 15.7348 21 16C21 16.2652 21.1054 16.5196 21.2929 16.7071C21.4804 16.8946 21.7348 17 22 17ZM54 20H33C32.7348 20 32.4804 20.1054 32.2929 20.2929C32.1054 20.4804 32 20.7348 32 21C32 21.2652 32.1054 21.5196 32.2929 21.7071C32.4804 21.8946 32.7348 22 33 22H54C54.2652 22 54.5196 21.8946 54.7071 21.7071C54.8946 21.5196 55 21.2652 55 21C55 20.7348 54.8946 20.4804 54.7071 20.2929C54.5196 20.1054 54.2652 20 54 20ZM45 26C45 25.7348 44.8946 25.4804 44.7071 25.2929C44.5196 25.1054 44.2652 25 44 25H22C21.7348 25 21.4804 25.1054 21.2929 25.2929C21.1054 25.4804 21 25.7348 21 26C21 26.2652 21.1054 26.5196 21.2929 26.7071C21.4804 26.8946 21.7348 27 22 27H44C44.2652 27 44.5196 26.8946 44.7071 26.7071C44.8946 26.5196 45 26.2652 45 26ZM54 25H48C47.7348 25 47.4804 25.1054 47.2929 25.2929C47.1054 25.4804 47 25.7348 47 26C47 26.2652 47.1054 26.5196 47.2929 26.7071C47.4804 26.8946 47.7348 27 48 27H54C54.2652 27 54.5196 26.8946 54.7071 26.7071C54.8946 26.5196 55 26.2652 55 26C55 25.7348 54.8946 25.4804 54.7071 25.2929C54.5196 25.1054 54.2652 25 54 25ZM54 30H42C41.7348 30 41.4804 30.1054 41.2929 30.2929C41.1054 30.4804 41 30.7348 41 31C41 31.2652 41.1054 31.5196 41.2929 31.7071C41.4804 31.8946 41.7348 32 42 32H54C54.2652 32 54.5196 31.8946 54.7071 31.7071C54.8946 31.5196 55 31.2652 55 31C55 30.7348 54.8946 30.4804 54.7071 30.2929C54.5196 30.1054 54.2652 30 54 30ZM43 37H46C46.2652 37 46.5196 36.8946 46.7071 36.7071C46.8946 36.5196 47 36.2652 47 36C47 35.7348 46.8946 35.4804 46.7071 35.2929C46.5196 35.1054 46.2652 35 46 35H43C42.7348 35 42.4804 35.1054 42.2929 35.2929C42.1054 35.4804 42 35.7348 42 36C42 36.2652 42.1054 36.5196 42.2929 36.7071C42.4804 36.8946 42.7348 37 43 37ZM54 40H43C42.7348 40 42.4804 40.1054 42.2929 40.2929C42.1054 40.4804 42 40.7348 42 41C42 41.2652 42.1054 41.5196 42.2929 41.7071C42.4804 41.8946 42.7348 42 43 42H54C54.2652 42 54.5196 41.8946 54.7071 41.7071C54.8946 41.5196 55 41.2652 55 41C55 40.7348 54.8946 40.4804 54.7071 40.2929C54.5196 40.1054 54.2652 40 54 40ZM54 45H43C42.7348 45 42.4804 45.1054 42.2929 45.2929C42.1054 45.4804 42 45.7348 42 46C42 46.2652 42.1054 46.5196 42.2929 46.7071C42.4804 46.8946 42.7348 47 43 47H54C54.2652 47 54.5196 46.8946 54.7071 46.7071C54.8946 46.5196 55 46.2652 55 46C55 45.7348 54.8946 45.4804 54.7071 45.2929C54.5196 45.1054 54.2652 45 54 45ZM48 50H43C42.7348 50 42.4804 50.1054 42.2929 50.2929C42.1054 50.4804 42 50.7348 42 51C42 51.2652 42.1054 51.5196 42.2929 51.7071C42.4804 51.8946 42.7348 52 43 52H48C48.2652 52 48.5196 51.8946 48.7071 51.7071C48.8946 51.5196 49 51.2652 49 51C49 50.7348 48.8946 50.4804 48.7071 50.2929C48.5196 50.1054 48.2652 50 48 50ZM22 22H29C29.2652 22 29.5196 21.8946 29.7071 21.7071C29.8947 21.5196 30 21.2652 30 21C30 20.7348 29.8947 20.4804 29.7071 20.2929C29.5196 20.1054 29.2652 20 29 20H22C21.7348 20 21.4804 20.1054 21.2929 20.2929C21.1054 20.4804 21 20.7348 21 21C21 21.2652 21.1054 21.5196 21.2929 21.7071C21.4804 21.8946 21.7348 22 22 22ZM54 15H53C52.7348 15 52.4804 15.1054 52.2929 15.2929C52.1054 15.4804 52 15.7348 52 16C52 16.2652 52.1054 16.5196 52.2929 16.7071C52.4804 16.8946 52.7348 17 53 17H54C54.2652 17 54.5196 16.8946 54.7071 16.7071C54.8946 16.5196 55 16.2652 55 16C55 15.7348 54.8946 15.4804 54.7071 15.2929C54.5196 15.1054 54.2652 15 54 15ZM54 35H50C49.7348 35 49.4804 35.1054 49.2929 35.2929C49.1054 35.4804 49 35.7348 49 36C49 36.2652 49.1054 36.5196 49.2929 36.7071C49.4804 36.8946 49.7348 37 50 37H54C54.2652 37 54.5196 36.8946 54.7071 36.7071C54.8946 36.5196 55 36.2652 55 36C55 35.7348 54.8946 35.4804 54.7071 35.2929C54.5196 35.1054 54.2652 35 54 35Z" fill="#F2A41E"/>
</g>
</g>
<defs>
<clipPath id="clip0_7201_298784">
<rect width="60" height="60" fill="white"/>
</clipPath>
</defs>
</svg>
