<svg width="12" height="28" viewBox="0 0 12 28" fill="none" xmlns="http://www.w3.org/2000/svg">
<path d="M11.7455 11.2813C10.342 5.0895 7.41656 3.44116 6.67032 2.27596C6.3626 1.76265 6.09 1.2291 5.8544 0.678955C5.81498 1.22901 5.74255 1.57555 5.275 1.99268C4.33624 2.82968 0.349234 6.07869 0.013699 13.1139C-0.298917 19.6734 4.83588 23.7181 5.51428 24.1362C6.03592 24.3929 6.67124 24.1417 6.9811 23.9061C9.45636 22.2073 12.8383 17.6785 11.7483 11.2813" fill="#10AA50"/>
<path d="M6.06715 20.6434C5.93788 22.267 5.84529 23.2103 5.51709 24.1381C5.51709 24.1381 5.73253 25.6837 5.8838 27.3211H6.41918C6.54689 26.1681 6.74189 25.0235 7.00316 23.8933C6.31009 23.5523 6.09373 22.068 6.06715 20.6434Z" fill="#B8C4C2"/>
<path d="M7.00226 23.8942C6.30185 23.5706 6.09924 22.0552 6.06807 20.6434C6.24129 18.3145 6.29178 15.9781 6.21934 13.6439C6.18267 12.4191 6.23676 2.29985 5.91772 0.818359C6.13596 1.32012 6.38741 1.80678 6.67039 2.2751C7.41663 3.44122 10.3429 5.08956 11.7456 11.2814C12.8384 17.6676 9.47477 22.1844 7.00226 23.8942Z" fill="#12924F"/>
</svg>