<svg width="17" height="10" viewBox="0 0 17 10" fill="none" xmlns="http://www.w3.org/2000/svg">
<path d="M4.76135 3.50962C4.76135 3.70862 4.78268 3.86962 4.82001 3.98795C4.86268 4.10628 4.91568 4.23528 4.99034 4.37495C5.01701 4.41794 5.02768 4.46094 5.02768 4.49861C5.02768 4.55228 4.99568 4.60594 4.92668 4.65994L4.59135 4.88561C4.54335 4.91794 4.49568 4.93394 4.45302 4.93394C4.39969 4.93394 4.34669 4.90694 4.29335 4.85861C4.21869 4.77794 4.15502 4.69194 4.10169 4.60594C4.04836 4.51461 3.99536 4.41261 3.93669 4.28895C3.5217 4.78327 3.00004 5.0306 2.37204 5.0306C1.92505 5.0306 1.56839 4.90161 1.30772 4.64361C1.04706 4.38561 0.914062 4.04162 0.914062 3.61162C0.914062 3.15496 1.07373 2.78397 1.39839 2.50464C1.72305 2.22531 2.15405 2.08531 2.70204 2.08531C2.88304 2.08531 3.06937 2.10131 3.26603 2.12831C3.4627 2.15531 3.66503 2.19831 3.87803 2.24664V1.85431C3.87803 1.44598 3.79303 1.16099 3.62803 0.994321C3.4577 0.827656 3.17037 0.746991 2.76071 0.746991C2.57437 0.746991 2.38304 0.768324 2.18605 0.81699C1.98905 0.865323 1.79772 0.924322 1.61139 0.999654C1.52639 1.03732 1.46239 1.05865 1.42506 1.06965C1.38772 1.08032 1.36106 1.08565 1.34006 1.08565C1.26539 1.08565 1.22839 1.03199 1.22839 0.918989V0.655658C1.22839 0.56966 1.23906 0.505327 1.26572 0.467661C1.29239 0.429995 1.34039 0.392328 1.41472 0.354662C1.60105 0.257997 1.82438 0.177331 2.08538 0.112665C2.34604 0.0426662 2.62271 0.0106664 2.91537 0.0106664C3.5487 0.0106664 4.01169 0.155665 4.30969 0.445995C4.60235 0.736324 4.75135 1.17699 4.75135 1.76798V3.50929L4.76135 3.50962ZM2.60071 4.32628C2.77637 4.32628 2.95737 4.29395 3.1487 4.22961C3.34037 4.16528 3.5107 4.04695 3.65436 3.88562C3.73936 3.78362 3.80336 3.67062 3.83536 3.54162C3.86736 3.41262 3.88869 3.25663 3.88869 3.07396V2.8483C3.73436 2.81063 3.56936 2.7783 3.39903 2.75697C3.2287 2.73563 3.0637 2.72463 2.8987 2.72463C2.54204 2.72463 2.28138 2.79463 2.10571 2.93963C1.93005 3.08463 1.84505 3.28896 1.84505 3.55762C1.84505 3.81029 1.90905 3.99828 2.04205 4.12728C2.16971 4.26195 2.35604 4.32628 2.60071 4.32628ZM6.87399 4.90694C6.77832 4.90694 6.71432 4.89094 6.67166 4.85327C6.62899 4.82094 6.59199 4.74594 6.55999 4.64361L5.30934 0.489327C5.27734 0.381995 5.26134 0.311996 5.26134 0.27433C5.26134 0.188331 5.30401 0.139998 5.38901 0.139998H5.91067C6.01166 0.139998 6.081 0.155998 6.11833 0.193664C6.161 0.225997 6.19266 0.300996 6.22466 0.403328L7.11865 3.96128L7.94864 0.403328C7.97531 0.295996 8.00731 0.225997 8.04964 0.193664C8.0923 0.161331 8.16664 0.139998 8.26264 0.139998H8.6883C8.7893 0.139998 8.85863 0.155998 8.90129 0.193664C8.94396 0.225997 8.98096 0.300996 9.00229 0.403328L9.84295 4.00428L10.7636 0.403328C10.7956 0.295996 10.8329 0.225997 10.8699 0.193664C10.9126 0.161331 10.9816 0.139998 11.0776 0.139998H11.5726C11.6576 0.139998 11.7056 0.182998 11.7056 0.27433C11.7056 0.30133 11.7003 0.327996 11.6949 0.360329C11.6896 0.392662 11.6789 0.435661 11.6576 0.494661L10.3753 4.64894C10.3433 4.75627 10.3059 4.82627 10.2636 4.85861C10.2213 4.89094 10.1519 4.91227 10.0613 4.91227H9.60362C9.50262 4.91227 9.43329 4.89627 9.39062 4.85861C9.34796 4.82094 9.31096 4.75127 9.28962 4.64361L8.46497 1.17699L7.64564 4.63828C7.61898 4.74561 7.58698 4.81561 7.54465 4.85327C7.50198 4.89094 7.42765 4.90694 7.33165 4.90694H6.87399ZM13.7119 5.05194C13.4352 5.05194 13.1586 5.0196 12.8926 4.95527C12.6266 4.89094 12.4189 4.82094 12.2806 4.74027C12.1956 4.69194 12.1369 4.63828 12.1156 4.58994C12.0943 4.54161 12.0836 4.48794 12.0836 4.43961V4.16561C12.0836 4.05262 12.1263 3.99895 12.2059 3.99895C12.2379 3.99895 12.2699 4.00428 12.3016 4.01495C12.3336 4.02562 12.3813 4.04728 12.4346 4.06862C12.6156 4.14928 12.8122 4.21361 13.0199 4.25661C13.2329 4.29961 13.4402 4.32095 13.6532 4.32095C13.9886 4.32095 14.2492 4.26195 14.4302 4.14361C14.6112 4.02528 14.7069 3.85329 14.7069 3.63295C14.7069 3.48262 14.6589 3.35896 14.5632 3.25663C14.4676 3.15463 14.2866 3.06329 14.0259 2.9773L13.2542 2.7353C12.8659 2.61163 12.5786 2.42897 12.4029 2.18697C12.2273 1.95064 12.1369 1.68731 12.1369 1.40765C12.1369 1.18199 12.1849 0.982988 12.2806 0.81099C12.3763 0.638992 12.5042 0.488661 12.6636 0.370329C12.8232 0.246664 13.0042 0.155331 13.2169 0.0909988C13.4299 0.0269996 13.6532 0 13.8876 0C14.0046 0 14.1269 0.00533331 14.2442 0.0213331C14.3666 0.0373329 14.4782 0.0589993 14.5902 0.0803324C14.6966 0.107332 14.7979 0.133998 14.8936 0.166331C14.9892 0.198664 15.0639 0.230664 15.1172 0.262997C15.1919 0.305996 15.2449 0.348996 15.2769 0.397328C15.3089 0.440328 15.3249 0.499327 15.3249 0.574659V0.827323C15.3249 0.940322 15.2822 0.999321 15.2025 0.999321C15.1599 0.999321 15.0909 0.977988 15.0002 0.934988C14.6969 0.795323 14.3562 0.725324 13.9786 0.725324C13.6752 0.725324 13.4359 0.773657 13.2709 0.875656C13.1059 0.977654 13.0209 1.13365 13.0209 1.35398C13.0209 1.50431 13.0742 1.63331 13.1806 1.73565C13.2869 1.83764 13.4839 1.93998 13.7659 2.03131L14.5216 2.2733C14.9046 2.39697 15.1815 2.56897 15.3462 2.7893C15.5109 3.00963 15.5909 3.26229 15.5909 3.54162C15.5909 3.77262 15.5429 3.98228 15.4525 4.16495C15.3569 4.34761 15.2289 4.50894 15.0642 4.63794C14.8992 4.77227 14.7022 4.86894 14.4736 4.93894C14.2332 5.01427 13.9832 5.05194 13.7119 5.05194Z" fill="#252F3E"/>
<path d="M14.7154 7.66411C12.9647 8.97009 10.4211 9.66341 8.2338 9.66341C5.16884 9.66341 2.40688 8.51876 0.320902 6.61612C0.155904 6.46579 0.304902 6.26146 0.5019 6.37979C2.7582 7.70177 5.54117 8.50276 8.42013 8.50276C10.3624 8.50276 12.4964 8.09443 14.4597 7.25578C14.7527 7.12145 15.0027 7.44911 14.7154 7.66411ZM15.4444 6.82578C15.2207 6.53545 13.9651 6.68612 13.3957 6.75578C13.2254 6.77712 13.1987 6.62679 13.3531 6.51379C14.3534 5.80446 15.9977 6.00846 16.1894 6.24512C16.381 6.48712 16.136 8.14777 15.1997 8.94309C15.056 9.06675 14.9177 9.00209 14.9814 8.84109C15.1944 8.3091 15.668 7.11045 15.4444 6.82578Z" fill="#FF9900" fill-opacity="0.6"/>
</svg>

