<svg width="48" height="16" viewBox="0 0 48 16" fill="none" xmlns="http://www.w3.org/2000/svg">
<path d="M34.0584 12.7809C33.0043 12.7133 32.3915 12.1137 32.2293 10.992C32.1861 10.6935 32.1861 10.6858 32.1814 8.74857L32.1772 6.87354H33.1101L33.1136 8.68717C33.117 10.3216 33.119 10.5135 33.1348 10.6282C33.1981 11.0951 33.3244 11.409 33.5398 11.6341C33.712 11.8144 33.9136 11.9198 34.1928 11.9758C34.3241 12.0024 34.699 12.0024 34.8191 11.9758C35.0886 11.9209 35.3356 11.787 35.5288 11.5912C35.757 11.3634 35.9257 11.0402 36.0076 10.6749L36.0346 10.5518L36.0377 8.72308L36.0408 6.89362H36.9933V12.6446H36.0508V12.1882C36.0508 11.8785 36.0473 11.7333 36.04 11.7356C36.0186 11.7606 36.0005 11.7882 35.9863 11.8179C35.8145 12.1232 35.5622 12.3754 35.2569 12.5473C34.9017 12.7423 34.5453 12.8118 34.0584 12.7809ZM44.7541 12.7762C44.3702 12.7443 43.9991 12.6232 43.6702 12.4225C42.9953 12.0055 42.596 11.3182 42.4794 10.373C42.4389 10.0456 42.4339 9.60615 42.4678 9.32814C42.5431 8.70648 42.7875 8.0964 43.1358 7.66124C43.2246 7.54926 43.4274 7.34732 43.5389 7.25812C43.84 7.01785 44.1922 6.84995 44.5684 6.76736C44.7869 6.71986 45.1715 6.69747 45.4035 6.7187C45.9866 6.77276 46.5202 7.04691 46.8832 7.47821C47.2523 7.91647 47.4546 8.52886 47.4809 9.28296C47.4851 9.43648 47.4857 9.59007 47.4828 9.74361L47.4778 9.98919L45.4368 9.9915L43.3957 9.99421V10.0853C43.3957 10.3622 43.4629 10.6776 43.5795 10.9464C43.6799 11.1777 43.8532 11.4302 43.9946 11.5526C44.285 11.8034 44.6471 11.9563 45.0294 11.9897C45.1738 12.0032 45.5414 11.9889 45.7055 11.9638C46.1746 11.8916 46.6206 11.7078 46.9801 11.4387C47.0226 11.4067 47.0631 11.3769 47.0704 11.3727C47.0809 11.3661 47.0836 11.4487 47.0832 11.7974V12.2299L46.9863 12.2897C46.5699 12.5444 46.1033 12.7059 45.6186 12.7631C45.4711 12.7813 44.9305 12.7894 44.7541 12.7762ZM46.5303 9.12542C46.5303 8.66169 46.3345 8.14621 46.0576 7.88094C45.8601 7.6916 45.6078 7.56945 45.3367 7.53188C45.2024 7.51103 44.9193 7.51914 44.7776 7.54733C44.4881 7.60246 44.2221 7.74378 44.0143 7.95276C43.7855 8.17924 43.6125 8.45576 43.5088 8.76053C43.4702 8.87251 43.4254 9.05592 43.4111 9.15786L43.4046 9.20651H46.5303V9.12542ZM18.8431 12.6314L20.3834 8.58987L21.9194 4.56104H22.9063L22.9473 4.66529C23.0724 4.98616 26.022 12.6357 26.022 12.6396C26.022 12.6423 25.7857 12.6442 25.4968 12.6442H24.9717L24.547 11.5136L24.1215 10.383H20.6981L20.6834 10.4216C20.6753 10.4425 20.4934 10.9514 20.2795 11.5518L19.8911 12.6442H19.3648C18.9485 12.6442 18.8397 12.6419 18.8431 12.6314ZM23.8091 9.52043C23.8091 9.5185 23.5234 8.74393 23.1735 7.79831C22.5194 6.03063 22.4827 5.92406 22.431 5.64026C22.4067 5.50743 22.3943 5.50357 22.38 5.62481C22.3596 5.75635 22.33 5.88629 22.2912 6.01364C22.2739 6.06731 21.9792 6.8747 21.6364 7.80835C21.4267 8.37657 21.2188 8.94547 21.0128 9.51502C21.0128 9.51966 21.6422 9.52352 22.4109 9.52352C23.1801 9.52352 23.8091 9.52198 23.8091 9.52043ZM26.3394 12.4975V12.35L28.0449 10.0081L29.7504 7.66626L28.2059 7.66124L26.6622 7.65622L26.6595 7.26469L26.6568 6.87354H31.1235V7.13765L29.4179 9.49224C28.4797 10.7873 27.712 11.8492 27.712 11.8515C27.712 11.8542 28.4704 11.8565 29.3971 11.8565H31.0825V12.6442H26.3394V12.4975ZM38.8541 12.6376C38.8502 12.6338 38.8475 11.3352 38.8475 9.75211V6.87315H39.7796V7.46663C39.7796 7.79329 39.7835 8.0601 39.7881 8.0601C39.7931 8.0601 39.8159 8.00682 39.8387 7.94156C39.9468 7.63719 40.1253 7.36267 40.3596 7.14035C40.5611 6.94493 40.8185 6.81713 41.0959 6.77469C41.1759 6.76195 41.2434 6.75925 41.4033 6.76349C41.6041 6.7689 41.7087 6.78357 41.8307 6.82334L41.8693 6.8357V7.80256L41.7593 7.74773C41.5686 7.65108 41.3551 7.60836 41.1419 7.62417C40.9917 7.63189 40.8932 7.6512 40.7731 7.69599C40.5295 7.78588 40.3228 7.95452 40.1858 8.17517C39.9769 8.51607 39.8439 8.89799 39.7958 9.29493C39.7881 9.36328 39.7839 9.92123 39.7819 11.0205L39.7792 12.645H39.3201C39.0676 12.645 38.8579 12.6415 38.8541 12.6376Z" fill="#0089D6"/>
<path d="M5.30695 0.534289H10.0176L5.12761 15.0229C5.07739 15.1718 4.98171 15.3012 4.85404 15.3929C4.72638 15.4845 4.57317 15.5338 4.416 15.5338H0.75006C0.631 15.5338 0.513655 15.5054 0.407718 15.4511C0.301781 15.3968 0.210292 15.318 0.140806 15.2213C0.0713413 15.1246 0.0259088 15.0128 0.00827093 14.895C-0.00936697 14.7773 0.00129707 14.657 0.0393801 14.5442L4.59535 1.04513C4.64559 0.896205 4.74128 0.766793 4.86893 0.675111C4.99659 0.583429 5.14979 0.534096 5.30695 0.534058V0.534289Z" fill="url(#paint0_linear_83_2355)"/>
<path d="M12.152 10.2524H4.68236C4.61289 10.2523 4.54499 10.2731 4.4875 10.3121C4.43002 10.3511 4.38563 10.4065 4.36012 10.4711C4.3346 10.5357 4.32916 10.6065 4.34449 10.6743C4.35981 10.742 4.39521 10.8036 4.44605 10.8509L9.24597 15.3312C9.38581 15.4615 9.56989 15.534 9.76106 15.5339H13.9907L12.152 10.2524Z" fill="#0078D4"/>
<path d="M5.30698 0.534307C5.1481 0.53371 4.99319 0.583926 4.86487 0.677621C4.73656 0.771317 4.64156 0.903582 4.59375 1.0551L0.0450767 14.532C0.00446903 14.6452 -0.00827579 14.7665 0.00792018 14.8857C0.0241161 15.0049 0.0687765 15.1184 0.138124 15.2167C0.207471 15.315 0.299466 15.3951 0.406327 15.4503C0.513189 15.5055 0.631773 15.5342 0.752051 15.5338H4.5127C4.65276 15.5088 4.78367 15.4471 4.89206 15.3549C5.00044 15.2627 5.08241 15.1434 5.1296 15.0092L6.03665 12.3359L9.27685 15.358C9.4126 15.4703 9.5829 15.5324 9.75909 15.5338H13.9731L12.1249 10.2523L6.73714 10.2535L10.0347 0.534307H5.30698Z" fill="url(#paint1_linear_83_2355)"/>
<path d="M11.3236 1.04444C11.2735 0.895732 11.1779 0.76651 11.0504 0.674988C10.9229 0.583466 10.7699 0.53426 10.613 0.534302H5.3631C5.52002 0.534319 5.67298 0.58355 5.80045 0.675065C5.92792 0.76658 6.02347 0.895769 6.07366 1.04444L10.6297 14.5441C10.6679 14.6569 10.6786 14.7772 10.661 14.895C10.6434 15.0128 10.598 15.1247 10.5286 15.2215C10.4591 15.3182 10.3676 15.3971 10.2616 15.4514C10.1557 15.5058 10.0383 15.5341 9.91918 15.5341H15.1693C15.2883 15.534 15.4057 15.5056 15.5116 15.4512C15.6175 15.3968 15.7089 15.318 15.7783 15.2212C15.8477 15.1245 15.8931 15.0127 15.9108 14.8949C15.9284 14.7772 15.9178 14.6569 15.8797 14.5441L11.3236 1.04444Z" fill="url(#paint2_linear_83_2355)"/>
<defs>
<linearGradient id="paint0_linear_83_2355" x1="7.02391" y1="1.64581" x2="2.13182" y2="16.098" gradientUnits="userSpaceOnUse">
<stop stop-color="#114A8B"/>
<stop offset="1" stop-color="#0669BC"/>
</linearGradient>
<linearGradient id="paint1_linear_83_2355" x1="8.55205" y1="8.38096" x2="7.42049" y2="8.76363" gradientUnits="userSpaceOnUse">
<stop stop-opacity="0.3"/>
<stop offset="0.071" stop-opacity="0.2"/>
<stop offset="0.321" stop-opacity="0.1"/>
<stop offset="0.623" stop-opacity="0.05"/>
<stop offset="1" stop-opacity="0"/>
</linearGradient>
<linearGradient id="paint2_linear_83_2355" x1="7.92967" y1="1.22426" x2="13.2997" y2="15.5309" gradientUnits="userSpaceOnUse">
<stop stop-color="#3CCBF4"/>
<stop offset="1" stop-color="#2892DF"/>
</linearGradient>
</defs>
</svg>
