<svg width="15" height="12" viewBox="0 0 15 12" fill="none" xmlns="http://www.w3.org/2000/svg">
<path d="M9.58659 3.1756L10.0442 3.1836L11.2874 1.9404L11.3474 1.4136C10.3594 0.5348 9.05939 0 7.63659 0C5.06059 0 2.88619 1.7528 2.24219 4.1272C2.37819 4.0324 2.66819 4.1032 2.66819 4.1032L5.15299 3.6944C5.15299 3.6944 5.28099 3.4824 5.34499 3.4956C5.87836 2.91211 6.61426 2.55411 7.40255 2.49465C8.19084 2.43518 8.97172 2.67873 9.58659 3.1756Z" fill="#EA4335"/>
<path d="M13.0407 4.13161C12.7551 3.08068 12.169 2.13594 11.3543 1.41321L9.59354 3.17401C9.9549 3.46444 10.2465 3.83222 10.4469 4.25027C10.6473 4.66832 10.7514 5.126 10.7515 5.58961V5.90041C11.6083 5.90041 12.3035 6.59761 12.3035 7.45241C12.3035 8.30721 11.6063 9.00441 10.7515 9.00441H7.64674L7.33594 9.31641V11.1796L7.64674 11.4888H10.7515C11.8208 11.486 12.8454 11.0597 13.6013 10.3034C14.3571 9.54701 14.7826 8.52209 14.7847 7.45281C14.7831 6.07841 14.0903 4.86081 13.0367 4.13161H13.0407Z" fill="#4285F4"/>
<path d="M4.53255 11.4915H7.63655V9.00672H4.53255C4.31212 9.00683 4.09426 8.95949 3.89375 8.86792L3.44575 9.00512L2.20255 10.2483L2.09375 10.6683C2.79321 11.2054 3.6511 11.4952 4.53295 11.4923L4.53255 11.4915Z" fill="#34A853"/>
<path d="M4.5376 3.41675C3.46728 3.41844 2.44129 3.84437 1.68446 4.6012C0.927626 5.35803 0.501693 6.38403 0.5 7.45435C0.499994 8.0776 0.644471 8.69236 0.922086 9.25037C1.1997 9.80837 1.60289 10.2944 2.1 10.6703L3.9 8.87035C3.62734 8.74767 3.39593 8.54886 3.23357 8.2978C3.07121 8.04674 2.98483 7.75413 2.9848 7.45515C2.9848 6.59835 3.682 5.90315 4.5368 5.90315C4.83567 5.90367 5.12807 5.99026 5.37904 6.15256C5.63 6.31485 5.82892 6.546 5.952 6.81835L7.752 5.01835C7.0136 4.04635 5.848 3.41835 4.536 3.41835L4.5376 3.41675Z" fill="#FBBC05"/>
</svg>
