<svg width="66" height="65" viewBox="0 0 66 65" fill="none" xmlns="http://www.w3.org/2000/svg">
<path d="M12.6875 22.9023C12.8887 22.8997 13.0809 22.8186 13.2232 22.6763C13.3655 22.534 13.4466 22.3418 13.4492 22.1406V13H22.6406C22.8426 13 23.0364 12.9197 23.1792 12.7769C23.3221 12.634 23.4023 12.4403 23.4023 12.2383C23.4023 12.0363 23.3221 11.8425 23.1792 11.6997C23.0364 11.5568 22.8426 11.4766 22.6406 11.4766H12.6875C12.4863 11.4792 12.2941 11.5603 12.1518 11.7026C12.0095 11.8449 11.9284 12.0371 11.9258 12.2383V22.1914C11.941 22.3836 12.0276 22.5632 12.1686 22.6948C12.3096 22.8264 12.4947 22.9004 12.6875 22.9023Z" fill="black"/>
<path d="M53.3125 42.0977C53.1113 42.1003 52.9191 42.1814 52.7768 42.3237C52.6345 42.466 52.5534 42.6582 52.5508 42.8594V52H43.4102C43.2081 52 43.0144 52.0803 42.8715 52.2231C42.7287 52.366 42.6484 52.5597 42.6484 52.7617C42.6484 52.9637 42.7287 53.1575 42.8715 53.3003C43.0144 53.4432 43.2081 53.5234 43.4102 53.5234H53.3125C53.5137 53.5208 53.7059 53.4397 53.8482 53.2974C53.9905 53.1551 54.0716 52.9629 54.0742 52.7617V42.8594C54.0716 42.6582 53.9905 42.466 53.8482 42.3237C53.7059 42.1814 53.5137 42.1003 53.3125 42.0977Z" fill="black"/>
<path d="M22.6406 52.0508H13.5V42.9102C13.5 42.7081 13.4197 42.5144 13.2769 42.3715C13.134 42.2287 12.9403 42.1484 12.7383 42.1484C12.5363 42.1484 12.3425 42.2287 12.1997 42.3715C12.0568 42.5144 11.9766 42.7081 11.9766 42.9102V52.8125C11.9792 53.0137 12.0603 53.2059 12.2026 53.3482C12.3449 53.4905 12.5371 53.5716 12.7383 53.5742H22.6914C22.8934 53.5742 23.0872 53.494 23.23 53.3511C23.3729 53.2083 23.4531 53.0145 23.4531 52.8125C23.4531 52.6105 23.3729 52.4167 23.23 52.2739C23.0872 52.131 22.8934 52.0508 22.6914 52.0508H22.6406Z" fill="black"/>
<path d="M53.3125 11.4258H43.3594C43.1574 11.4258 42.9636 11.506 42.8208 11.6489C42.6779 11.7917 42.5977 11.9855 42.5977 12.1875C42.5977 12.3895 42.6779 12.5833 42.8208 12.7261C42.9636 12.869 43.1574 12.9492 43.3594 12.9492H52.5V22.1406C52.5 22.3426 52.5803 22.5364 52.7231 22.6792C52.866 22.8221 53.0597 22.9023 53.2617 22.9023C53.4637 22.9023 53.6575 22.8221 53.8003 22.6792C53.9432 22.5364 54.0234 22.3426 54.0234 22.1406V12.1875C54.0215 11.9947 53.9475 11.8096 53.8159 11.6686C53.6843 11.5276 53.5047 11.441 53.3125 11.4258Z" fill="black"/>
<path d="M42.232 23.268C40.0955 21.1269 37.2825 19.7931 34.2727 19.4939C31.2628 19.1947 28.2423 19.9486 25.7261 21.6271C23.2099 23.3056 21.3536 25.8048 20.4738 28.6987C19.594 31.5926 19.745 34.7021 20.9011 37.4971C22.0572 40.2921 24.1469 42.5997 26.814 44.0265C29.481 45.4532 32.5603 45.9109 35.527 45.3214C38.4937 44.7319 41.1642 43.1318 43.0832 40.7938C45.0022 38.4558 46.051 35.5247 46.0508 32.5C46.054 30.7854 45.7182 29.0872 45.0629 27.5028C44.4075 25.9185 43.4455 24.4793 42.232 23.268ZM21.4726 32.5C21.4713 30.2853 22.1085 28.1173 23.308 26.2555C24.5074 24.3938 26.2182 22.9173 28.2353 22.0031C30.2525 21.0888 32.4904 20.7756 34.6811 21.1008C36.8717 21.426 38.9221 22.3759 40.5867 23.8367L24.3367 40.0867C22.4857 37.9936 21.4666 35.2942 21.4726 32.5ZM41.125 40.625C39.0561 42.6929 36.2779 43.8962 33.3543 43.9905C30.4306 44.0848 27.5806 43.0631 25.3828 41.1328L41.6328 24.8828C43.5631 27.0806 44.5848 29.9306 44.4905 32.8543C44.3962 35.7779 43.1929 38.5561 41.125 40.625Z" fill="black"/>
<path d="M49.25 61.6992H16.75C13.3165 61.6965 10.0244 60.3314 7.59649 57.9035C5.16862 55.4756 3.80347 52.1835 3.80078 48.75V16.25C3.80347 12.8165 5.16862 9.52436 7.59649 7.09649C10.0244 4.66862 13.3165 3.30347 16.75 3.30078H49.25C52.6835 3.30347 55.9756 4.66862 58.4035 7.09649C60.8314 9.52436 62.1965 12.8165 62.1992 16.25V48.75C62.1965 52.1835 60.8314 55.4756 58.4035 57.9035C55.9756 60.3314 52.6835 61.6965 49.25 61.6992ZM16.75 4.82422C13.7213 4.82959 10.8183 6.0351 8.67668 8.17668C6.5351 10.3183 5.32959 13.2213 5.32422 16.25V48.75C5.32959 51.7787 6.5351 54.6817 8.67668 56.8233C10.8183 58.9649 13.7213 60.1704 16.75 60.1758H49.25C52.2787 60.1704 55.1817 58.9649 57.3233 56.8233C59.4649 54.6817 60.6704 51.7787 60.6758 48.75V16.25C60.6704 13.2213 59.4649 10.3183 57.3233 8.17668C55.1817 6.0351 52.2787 4.82959 49.25 4.82422H16.75Z" fill="black"/>
</svg>
