<svg width="48" height="48" viewBox="0 0 48 48" fill="none" xmlns="http://www.w3.org/2000/svg">
<path d="M13 47C12.9342 47.0007 12.8689 46.9882 12.8079 46.9633C12.7469 46.9384 12.6915 46.9016 12.645 46.8551C12.5984 46.8085 12.5616 46.7531 12.5367 46.6922C12.5118 46.6312 12.4994 46.5659 12.5 46.5V33.5C12.5 33.32 12.6 33.15 12.76 33.06L23.76 27.06C23.92 26.98 24.1 26.98 24.25 27.07C24.4 27.16 24.49 27.32 24.49 27.5V40.5C24.49 40.68 24.39 40.85 24.23 40.94L13.23 46.94C13.16 46.98 13.08 47 13 47ZM13.5 33.8V45.66L23.5 40.2V28.34L13.5 33.8Z" fill="black"/>
<path d="M46 28C45.92 28 45.84 27.98 45.76 27.94L35 22.07L24.24 27.94C24 28.07 23.69 27.98 23.56 27.74C23.43 27.5 23.52 27.19 23.76 27.06L34.76 21.06C34.8339 21.0206 34.9163 21 35 21C35.0838 21 35.1662 21.0206 35.2401 21.06L46.24 27.06C46.48 27.19 46.57 27.5 46.44 27.74C46.3977 27.8196 46.3343 27.886 46.2566 27.9319C46.179 27.9778 46.0902 28.0013 46 28Z" fill="black"/>
<path d="M35 47C34.9099 47.0014 34.8211 46.9778 34.7435 46.9319C34.6658 46.8861 34.6024 46.8197 34.56 46.74C34.4977 46.6231 34.4837 46.4863 34.5211 46.3592C34.5585 46.232 34.6443 46.1246 34.76 46.06L45.5 40.2V28.34L35.24 33.94C35 34.07 34.69 33.98 34.56 33.74C34.43 33.5 34.52 33.19 34.76 33.06L45.76 27.06C45.92 26.98 46.1 26.98 46.25 27.07C46.4 27.16 46.49 27.32 46.49 27.5V40.5C46.49 40.68 46.39 40.85 46.23 40.94L35.23 46.94C35.16 46.98 35.08 47 35 47Z" fill="black"/>
<path d="M35 47C34.92 47 34.84 46.98 34.76 46.94L23.76 40.94C23.6817 40.8961 23.6165 40.8323 23.5708 40.755C23.5251 40.6777 23.5007 40.5898 23.5 40.5V27.5C23.4993 27.414 23.5209 27.3292 23.5629 27.2541C23.6049 27.179 23.6658 27.1161 23.7395 27.0717C23.8132 27.0273 23.8972 27.0029 23.9832 27.0008C24.0692 26.9988 24.1543 27.0192 24.23 27.06L35.23 33.06C35.39 33.15 35.49 33.32 35.49 33.5V46.5C35.49 46.68 35.4 46.84 35.25 46.93C35.1759 46.9786 35.0886 47.003 35 47ZM24.5 40.2L34.5 45.66V33.8L24.5 28.34V40.2Z" fill="#F2A41E"/>
<path d="M13 34C12.9098 34.0013 12.8211 33.9778 12.7434 33.9319C12.6658 33.886 12.6023 33.8196 12.56 33.74C12.4976 33.623 12.4837 33.4863 12.5211 33.3591C12.5584 33.232 12.6443 33.1246 12.76 33.06L22.96 27.5L14.32 22.79C14.08 22.66 13.99 22.35 14.12 22.11C14.25 21.87 14.56 21.78 14.8 21.91L24.24 27.06C24.4 27.15 24.5 27.32 24.5 27.5C24.5 27.68 24.4 27.85 24.24 27.94L13.24 33.94C13.16 33.98 13.08 34 13 34ZM2.00001 28C1.90984 28.0013 1.82106 27.9778 1.74342 27.9319C1.66579 27.886 1.60232 27.8196 1.56001 27.74C1.49764 27.623 1.48365 27.4863 1.52105 27.3591C1.55845 27.232 1.64425 27.1246 1.76001 27.06L12.76 21.06C13 20.93 13.31 21.02 13.44 21.26C13.57 21.5 13.48 21.81 13.24 21.94L2.24001 27.94C2.16001 27.98 2.08001 28 2.00001 28Z" fill="#F2A41E"/>
<path d="M13 47C12.92 47 12.84 46.98 12.76 46.94L1.76002 40.94C1.68174 40.8961 1.61645 40.8323 1.57079 40.755C1.52513 40.6777 1.50071 40.5898 1.50002 40.5V27.5C1.49926 27.414 1.52095 27.3292 1.56294 27.2541C1.60493 27.179 1.66578 27.1161 1.73947 27.0717C1.81317 27.0273 1.89717 27.0028 1.98319 27.0008C2.06922 26.9987 2.15429 27.0191 2.23002 27.06L13.23 33.06C13.39 33.15 13.49 33.32 13.49 33.5V46.5C13.49 46.68 13.4 46.84 13.25 46.93C13.1759 46.9785 13.0886 47.003 13 47ZM2.50002 40.2L12.5 45.66V33.8L2.50002 28.34V40.2ZM24 15C23.92 15 23.83 14.98 23.76 14.94L14.78 10.04C14.54 9.91 14.45 9.6 14.58 9.36C14.71 9.12 15.02 9.03 15.26 9.16L24 13.93L33.96 8.5L24 3.07L13.24 8.94C13 9.07 12.69 8.98 12.56 8.74C12.43 8.5 12.52 8.19 12.76 8.06L23.76 2.06C23.8339 2.02061 23.9163 2 24 2C24.0837 2 24.1662 2.02061 24.24 2.06L35.24 8.06C35.4 8.15 35.5 8.32 35.5 8.5C35.5 8.68 35.4 8.85 35.24 8.94L24.24 14.94C24.17 14.98 24.08 15 24 15Z" fill="#F2A41E"/>
<path d="M24 28C23.72 28 23.5 27.78 23.5 27.5V14.5C23.5 14.32 23.6 14.15 23.76 14.06L34.76 8.06C34.8364 8.0192 34.922 7.99881 35.0085 8.00079C35.0951 8.00277 35.1797 8.02706 35.2541 8.07131C35.3285 8.11556 35.3902 8.17827 35.4333 8.25337C35.4764 8.32847 35.4994 8.41342 35.5 8.5V21.5C35.5 21.78 35.28 22 35 22C34.72 22 34.5 21.78 34.5 21.5V9.34L24.5 14.8V27.5C24.5 27.78 24.28 28 24 28ZM13 22C12.72 22 12.5 21.78 12.5 21.5V8.5C12.5 8.22 12.72 8 13 8C13.28 8 13.5 8.22 13.5 8.5V21.5C13.5 21.78 13.28 22 13 22Z" fill="black"/>
</svg>
