<svg width="445" height="358" viewBox="0 0 445 358" fill="none" xmlns="http://www.w3.org/2000/svg">
<path d="M24.8984 158.516H73.0384" stroke="black" stroke-width="2.1628" stroke-miterlimit="10" stroke-linecap="round" stroke-linejoin="round"/>
<path d="M84.5898 158.516H94.8698" stroke="black" stroke-width="2.1628" stroke-miterlimit="10" stroke-linecap="round" stroke-linejoin="round"/>
<path d="M16.1797 144.961H102.36" stroke="black" stroke-width="2.1628" stroke-miterlimit="10" stroke-linecap="round" stroke-linejoin="round"/>
<path d="M9.09 144.961H2" stroke="black" stroke-width="2.1628" stroke-miterlimit="10" stroke-linecap="round" stroke-linejoin="round"/>
<path d="M16.1797 132.094H44.7897" stroke="black" stroke-width="2.1628" stroke-miterlimit="10" stroke-linecap="round" stroke-linejoin="round"/>
<path d="M52.4492 132.094H112.539" stroke="black" stroke-width="2.1628" stroke-miterlimit="10" stroke-linecap="round" stroke-linejoin="round"/>
<path d="M365.16 265.992H416.67" stroke="black" stroke-width="2.1628" stroke-miterlimit="10" stroke-linecap="round" stroke-linejoin="round"/>
<path d="M425.051 265.992H432.501" stroke="black" stroke-width="2.1628" stroke-miterlimit="10" stroke-linecap="round" stroke-linejoin="round"/>
<path d="M375.449 252.453H442.949" stroke="black" stroke-width="2.1628" stroke-miterlimit="10" stroke-linecap="round" stroke-linejoin="round"/>
<path d="M370.3 252.453H365.16" stroke="black" stroke-width="2.1628" stroke-miterlimit="10" stroke-linecap="round" stroke-linejoin="round"/>
<path d="M365.16 239.57H396.19" stroke="black" stroke-width="2.1628" stroke-miterlimit="10" stroke-linecap="round" stroke-linejoin="round"/>
<path d="M401.75 239.57H425.05" stroke="black" stroke-width="2.1628" stroke-miterlimit="10" stroke-linecap="round" stroke-linejoin="round"/>
<path d="M387.641 155.571V144.531" stroke="black" stroke-width="2.1628" stroke-miterlimit="10" stroke-linecap="round" stroke-linejoin="round"/>
<path d="M379.929 158.761L372.129 150.961" stroke="black" stroke-width="2.1628" stroke-miterlimit="10" stroke-linecap="round" stroke-linejoin="round"/>
<path d="M376.739 166.469H365.699" stroke="black" stroke-width="2.1628" stroke-miterlimit="10" stroke-linecap="round" stroke-linejoin="round"/>
<path d="M379.929 174.172L372.129 181.982" stroke="black" stroke-width="2.1628" stroke-miterlimit="10" stroke-linecap="round" stroke-linejoin="round"/>
<path d="M387.641 177.375V188.405" stroke="black" stroke-width="2.1628" stroke-miterlimit="10" stroke-linecap="round" stroke-linejoin="round"/>
<path d="M395.348 174.172L403.148 181.982" stroke="black" stroke-width="2.1628" stroke-miterlimit="10" stroke-linecap="round" stroke-linejoin="round"/>
<path d="M398.539 166.469H409.579" stroke="black" stroke-width="2.1628" stroke-miterlimit="10" stroke-linecap="round" stroke-linejoin="round"/>
<path d="M395.348 158.761L403.148 150.961" stroke="black" stroke-width="2.1628" stroke-miterlimit="10" stroke-linecap="round" stroke-linejoin="round"/>
<path d="M41.4102 210.543V202.562" stroke="black" stroke-width="2.1628" stroke-miterlimit="10" stroke-linecap="round" stroke-linejoin="round"/>
<path d="M35.8392 212.843L30.1992 207.203" stroke="black" stroke-width="2.1628" stroke-miterlimit="10" stroke-linecap="round" stroke-linejoin="round"/>
<path d="M33.5308 218.414H25.5508" stroke="black" stroke-width="2.1628" stroke-miterlimit="10" stroke-linecap="round" stroke-linejoin="round"/>
<path d="M35.8392 223.984L30.1992 229.634" stroke="black" stroke-width="2.1628" stroke-miterlimit="10" stroke-linecap="round" stroke-linejoin="round"/>
<path d="M41.4102 226.289V234.269" stroke="black" stroke-width="2.1628" stroke-miterlimit="10" stroke-linecap="round" stroke-linejoin="round"/>
<path d="M46.9805 223.984L52.6205 229.634" stroke="black" stroke-width="2.1628" stroke-miterlimit="10" stroke-linecap="round" stroke-linejoin="round"/>
<path d="M49.2891 218.414H57.2691" stroke="black" stroke-width="2.1628" stroke-miterlimit="10" stroke-linecap="round" stroke-linejoin="round"/>
<path d="M46.9805 212.843L52.6205 207.203" stroke="black" stroke-width="2.1628" stroke-miterlimit="10" stroke-linecap="round" stroke-linejoin="round"/>
<path d="M257.332 45.7222V37.7422" stroke="black" stroke-width="2.1628" stroke-miterlimit="10" stroke-linecap="round" stroke-linejoin="round"/>
<path d="M251.761 48.0306L246.121 42.3906" stroke="black" stroke-width="2.1628" stroke-miterlimit="10" stroke-linecap="round" stroke-linejoin="round"/>
<path d="M249.46 53.6016H241.48" stroke="black" stroke-width="2.1628" stroke-miterlimit="10" stroke-linecap="round" stroke-linejoin="round"/>
<path d="M251.761 59.1719L246.121 64.8119" stroke="black" stroke-width="2.1628" stroke-miterlimit="10" stroke-linecap="round" stroke-linejoin="round"/>
<path d="M257.332 61.4844V69.4644" stroke="black" stroke-width="2.1628" stroke-miterlimit="10" stroke-linecap="round" stroke-linejoin="round"/>
<path d="M262.902 59.1719L268.542 64.8119" stroke="black" stroke-width="2.1628" stroke-miterlimit="10" stroke-linecap="round" stroke-linejoin="round"/>
<path d="M265.211 53.6016H273.191" stroke="black" stroke-width="2.1628" stroke-miterlimit="10" stroke-linecap="round" stroke-linejoin="round"/>
<path d="M262.902 48.0306L268.542 42.3906" stroke="black" stroke-width="2.1628" stroke-miterlimit="10" stroke-linecap="round" stroke-linejoin="round"/>
<path d="M102.359 112.671V78.1406H281.849V154.861" stroke="black" stroke-width="2.1628" stroke-miterlimit="10" stroke-linecap="round" stroke-linejoin="round"/>
<path d="M218.59 53.6016V96.8316H337.61V116.502" stroke="black" stroke-width="2.1628" stroke-miterlimit="10" stroke-linecap="round" stroke-linejoin="round"/>
<path d="M106.638 116.952C106.638 119.322 104.718 121.232 102.358 121.232C99.9881 121.232 98.0781 119.312 98.0781 116.952C98.0781 114.582 99.9981 112.672 102.358 112.672C104.718 112.672 106.638 114.592 106.638 116.952Z" stroke="black" stroke-width="2.1628" stroke-miterlimit="10" stroke-linecap="round" stroke-linejoin="round"/>
<path d="M218.589 53.5991C220.952 53.5991 222.869 51.6828 222.869 49.3191C222.869 46.9553 220.952 45.0391 218.589 45.0391C216.225 45.0391 214.309 46.9553 214.309 49.3191C214.309 51.6828 216.225 53.5991 218.589 53.5991Z" stroke="black" stroke-width="2.1628" stroke-miterlimit="10" stroke-linecap="round" stroke-linejoin="round"/>
<path d="M341.9 121.233C341.9 123.603 339.98 125.513 337.62 125.513C335.25 125.513 333.34 123.593 333.34 121.233C333.34 118.863 335.26 116.953 337.62 116.953C339.98 116.953 341.9 118.873 341.9 121.233Z" stroke="black" stroke-width="2.1628" stroke-miterlimit="10" stroke-linecap="round" stroke-linejoin="round"/>
<path d="M286.13 159.85C286.13 162.22 284.21 164.13 281.85 164.13C279.49 164.13 277.57 162.21 277.57 159.85C277.57 157.48 279.49 155.57 281.85 155.57C284.21 155.57 286.13 157.49 286.13 159.85Z" stroke="black" stroke-width="2.1628" stroke-miterlimit="10" stroke-linecap="round" stroke-linejoin="round"/>
<path d="M74.4386 245.633L64.3086 255.773" stroke="black" stroke-width="2.1628" stroke-miterlimit="10" stroke-linecap="round" stroke-linejoin="round"/>
<path d="M64.3086 245.633L74.4386 255.773" stroke="black" stroke-width="2.1628" stroke-miterlimit="10" stroke-linecap="round" stroke-linejoin="round"/>
<path d="M79.5089 98.4688L69.3789 108.599" stroke="black" stroke-width="2.1628" stroke-miterlimit="10" stroke-linecap="round" stroke-linejoin="round"/>
<path d="M69.3789 98.4688L79.5089 108.599" stroke="black" stroke-width="2.1628" stroke-miterlimit="10" stroke-linecap="round" stroke-linejoin="round"/>
<path d="M408.218 213.352L398.078 223.482" stroke="black" stroke-width="2.1628" stroke-miterlimit="10" stroke-linecap="round" stroke-linejoin="round"/>
<path d="M398.078 213.352L408.218 223.482" stroke="black" stroke-width="2.1628" stroke-miterlimit="10" stroke-linecap="round" stroke-linejoin="round"/>
<path d="M120.619 40.6325C117.389 40.6325 114.429 41.7925 112.129 43.7225C109.779 36.6625 103.139 31.5625 95.2886 31.5625C86.4986 31.5625 79.2286 37.9525 77.7986 46.3325C76.8686 46.0725 75.8986 45.9125 74.8886 45.9125C69.0486 45.9125 64.3086 50.6525 64.3086 56.4925C64.3086 61.8625 68.3186 66.2925 73.5086 66.9725V67.0725H120.619C127.919 67.0725 133.839 61.1525 133.839 53.8525C133.839 46.5525 127.919 40.6325 120.619 40.6325Z" stroke="black" stroke-width="2.2614" stroke-miterlimit="10" stroke-linecap="round" stroke-linejoin="round"/>
<path d="M365.751 107.895C368.101 107.895 370.251 108.735 371.921 110.135C373.621 105.005 378.451 101.305 384.161 101.305C390.541 101.305 395.831 105.945 396.861 112.035C397.531 111.845 398.241 111.735 398.981 111.735C403.221 111.735 406.671 115.175 406.671 119.425C406.671 123.325 403.761 126.545 399.981 127.035V127.105H365.751C360.451 127.105 356.141 122.805 356.141 117.495C356.141 112.185 360.451 107.895 365.751 107.895Z" stroke="black" stroke-width="2.1628" stroke-miterlimit="10" stroke-linecap="round" stroke-linejoin="round"/>
<path d="M412.941 289.585C410.971 289.585 409.171 290.295 407.771 291.465C406.341 287.165 402.291 284.055 397.511 284.055C392.161 284.055 387.721 287.945 386.861 293.055C386.301 292.895 385.701 292.805 385.091 292.805C381.531 292.805 378.641 295.695 378.641 299.255C378.641 302.525 381.081 305.225 384.251 305.635V305.695H412.951C417.401 305.695 421.011 302.085 421.011 297.635C420.991 293.195 417.391 289.585 412.941 289.585Z" stroke="black" stroke-width="2.1628" stroke-miterlimit="10" stroke-linecap="round" stroke-linejoin="round"/>
<path d="M23.3991 272.582C25.7491 272.582 27.8991 273.422 29.5691 274.822C31.2691 269.692 36.0991 265.992 41.8091 265.992C48.1891 265.992 53.4791 270.632 54.5091 276.722C55.1791 276.532 55.8891 276.422 56.6291 276.422C60.8691 276.422 64.3191 279.862 64.3191 284.112C64.3191 288.012 61.4091 291.232 57.6291 291.722V291.792H23.3991C18.0991 291.792 13.7891 287.492 13.7891 282.182C13.7991 276.882 18.0991 272.582 23.3991 272.582Z" stroke="black" stroke-width="2.1628" stroke-miterlimit="10" stroke-linecap="round" stroke-linejoin="round"/>
<path d="M133.84 34.2908C133.84 34.2908 194.28 -14.9892 276.4 7.71082C362.66 31.5608 379.93 93.0708 379.93 93.0708" stroke="black" stroke-width="2.1628" stroke-miterlimit="10" stroke-linecap="round" stroke-linejoin="round" stroke-dasharray="3.27 3.27"/>
<path d="M42.5813 177.508C19.1513 181.138 7.3713 230.868 33.7313 250.608" stroke="black" stroke-width="2.0166" stroke-miterlimit="10" stroke-linecap="round" stroke-linejoin="round" stroke-dasharray="3.05 3.05"/>
<path d="M337.609 321C337.609 321 377.749 338.55 395.339 314.07" stroke="black" stroke-width="2.1628" stroke-miterlimit="10" stroke-linecap="round" stroke-linejoin="round" stroke-dasharray="3.27 3.27"/>
<path d="M146.66 121.231V95.8908" stroke="black" stroke-width="2.1628" stroke-miterlimit="10" stroke-linecap="round" stroke-linejoin="round"/>
<path d="M140.539 121.232V108.602" stroke="black" stroke-width="2.1628" stroke-miterlimit="10" stroke-linecap="round" stroke-linejoin="round"/>
<path d="M239.82 127.103V108.562" stroke="black" stroke-width="2.1628" stroke-miterlimit="10" stroke-linecap="round" stroke-linejoin="round"/>
<path d="M232.871 125.518V117.828" stroke="black" stroke-width="2.1628" stroke-miterlimit="10" stroke-linecap="round" stroke-linejoin="round"/>
<path d="M226.699 125.522V112.672" stroke="black" stroke-width="2.1628" stroke-miterlimit="10" stroke-linecap="round" stroke-linejoin="round"/>
<path d="M152.539 121.232V108.562" stroke="black" stroke-width="2.1628" stroke-miterlimit="10" stroke-linecap="round" stroke-linejoin="round"/>
<path d="M320.551 124.764V119.094" stroke="black" stroke-width="2.1628" stroke-miterlimit="10" stroke-linecap="round" stroke-linejoin="round"/>
<path d="M314.43 124.763V110.953" stroke="black" stroke-width="2.1628" stroke-miterlimit="10" stroke-linecap="round" stroke-linejoin="round"/>
<path d="M326.43 124.758V114.898" stroke="black" stroke-width="2.1628" stroke-miterlimit="10" stroke-linecap="round" stroke-linejoin="round"/>
</svg>
