<svg width="45" height="44" viewBox="0 0 45 44" fill="none" xmlns="http://www.w3.org/2000/svg">
<g filter="url(#filter0_d_4635_21590)">
<rect x="2.5" y="1" width="40" height="40" rx="8" fill="white"/>
<path d="M14.1667 21H30.8334M14.1667 21C14.1667 25.6024 17.8976 29.3333 22.5 29.3333M14.1667 21C14.1667 16.3976 17.8976 12.6667 22.5 12.6667M30.8334 21C30.8334 25.6024 27.1024 29.3333 22.5 29.3333M30.8334 21C30.8334 16.3976 27.1024 12.6667 22.5 12.6667M22.5 12.6667C24.5844 14.9486 25.769 17.91 25.8334 21C25.769 24.09 24.5844 27.0514 22.5 29.3333M22.5 12.6667C20.4156 14.9486 19.2311 17.91 19.1667 21C19.2311 24.09 20.4156 27.0514 22.5 29.3333" stroke="#7F56D9" stroke-width="2" stroke-linecap="round" stroke-linejoin="round"/>
<rect x="3" y="1.5" width="39" height="39" rx="7.5" stroke="#EAECF0"/>
</g>
<defs>
<filter id="filter0_d_4635_21590" x="0.5" y="0" width="44" height="44" filterUnits="userSpaceOnUse" color-interpolation-filters="sRGB">
<feFlood flood-opacity="0" result="BackgroundImageFix"/>
<feColorMatrix in="SourceAlpha" type="matrix" values="0 0 0 0 0 0 0 0 0 0 0 0 0 0 0 0 0 0 127 0" result="hardAlpha"/>
<feOffset dy="1"/>
<feGaussianBlur stdDeviation="1"/>
<feColorMatrix type="matrix" values="0 0 0 0 0.0627451 0 0 0 0 0.0941176 0 0 0 0 0.156863 0 0 0 0.05 0"/>
<feBlend mode="normal" in2="BackgroundImageFix" result="effect1_dropShadow_4635_21590"/>
<feBlend mode="normal" in="SourceGraphic" in2="effect1_dropShadow_4635_21590" result="shape"/>
</filter>
</defs>
</svg>
