<svg width="24" height="24" viewBox="0 0 24 24" fill="none" xmlns="http://www.w3.org/2000/svg">
<path opacity="0.3" fill-rule="evenodd" clip-rule="evenodd" d="M2.56068 10.682C1.97489 11.2678 1.97489 12.2175 2.56068 12.8033L4.68199 14.9246C5.26778 15.5104 6.21753 15.5104 6.80331 14.9246L8.92463 12.8033C9.51041 12.2175 9.51041 11.2678 8.92463 10.682L6.80331 8.56068C6.21753 7.97489 5.26778 7.97489 4.68199 8.56068L2.56068 10.682ZM14.5607 10.682C13.9749 11.2678 13.9749 12.2175 14.5607 12.8033L16.682 14.9246C17.2678 15.5104 18.2175 15.5104 18.8033 14.9246L20.9246 12.8033C21.5104 12.2175 21.5104 11.2678 20.9246 10.682L18.8033 8.56068C18.2175 7.97489 17.2678 7.97489 16.682 8.56068L14.5607 10.682Z" fill="#546E7A"/>
<path fill-rule="evenodd" clip-rule="evenodd" d="M8.56068 4.682C7.97489 5.26779 7.97489 6.21754 8.56068 6.80332L10.682 8.92465C11.2678 9.51043 12.2175 9.51043 12.8033 8.92465L14.9246 6.80332C15.5104 6.21754 15.5104 5.26779 14.9246 4.682L12.8033 2.56068C12.2175 1.97489 11.2678 1.97489 10.682 2.56068L8.56068 4.682ZM8.56068 16.682C7.97489 17.2678 7.97489 18.2175 8.56068 18.8033L10.682 20.9246C11.2678 21.5104 12.2175 21.5104 12.8033 20.9246L14.9246 18.8033C15.5104 18.2175 15.5104 17.2678 14.9246 16.682L12.8033 14.5607C12.2175 13.9749 11.2678 13.9749 10.682 14.5607L8.56068 16.682Z" fill="#546E7A"/>
</svg>
