<svg width="36" height="36" viewBox="0 0 36 36" fill="none" xmlns="http://www.w3.org/2000/svg">
<g style="mix-blend-mode:multiply">
<rect x="2" y="2" width="32" height="32" rx="16" fill="#F4EBFF"/>
<rect x="2" y="2" width="32" height="32" rx="16" stroke="#F9F5FF" stroke-width="4"/>
<path d="M21.3333 23.3334H21.2C20.0799 23.3334 19.5198 23.3334 19.092 23.1154C18.7157 22.9236 18.4097 22.6177 18.218 22.2414C18 21.8135 18 21.2535 18 20.1334V15.8667C18 14.7466 18 14.1865 18.218 13.7587C18.4097 13.3824 18.7157 13.0764 19.092 12.8847C19.5198 12.6667 20.0799 12.6667 21.2 12.6667H21.3333M21.3333 23.3334C21.3333 24.0698 21.9303 24.6667 22.6667 24.6667C23.403 24.6667 24 24.0698 24 23.3334C24 22.597 23.403 22 22.6667 22C21.9303 22 21.3333 22.597 21.3333 23.3334ZM21.3333 12.6667C21.3333 13.4031 21.9303 14 22.6667 14C23.403 14 24 13.4031 24 12.6667C24 11.9303 23.403 11.3334 22.6667 11.3334C21.9303 11.3334 21.3333 11.9303 21.3333 12.6667ZM14.6667 18L21.3333 18M14.6667 18C14.6667 18.7364 14.0697 19.3334 13.3333 19.3334C12.597 19.3334 12 18.7364 12 18C12 17.2637 12.597 16.6667 13.3333 16.6667C14.0697 16.6667 14.6667 17.2637 14.6667 18ZM21.3333 18C21.3333 18.7364 21.9303 19.3334 22.6667 19.3334C23.403 19.3334 24 18.7364 24 18C24 17.2637 23.403 16.6667 22.6667 16.6667C21.9303 16.6667 21.3333 17.2637 21.3333 18Z" stroke="#7F56D9" stroke-linecap="round" stroke-linejoin="round"/>
</g>
</svg>
