<svg width="44" height="44" viewBox="0 0 44 44" fill="none" xmlns="http://www.w3.org/2000/svg">
<g filter="url(#filter0_d_3173_90696)">
<rect x="2" y="1" width="40" height="40" rx="8" fill="white"/>
<g clip-path="url(#clip0_3173_90696)">
<path d="M16.1667 22.9053C14.6239 23.5859 13.6667 24.5343 13.6667 25.5833C13.6667 27.6544 17.3976 29.3333 22 29.3333C26.6024 29.3333 30.3333 27.6544 30.3333 25.5833C30.3333 24.5343 29.3761 23.5859 27.8333 22.9053M27 17.6667C27 21.0531 23.25 22.6667 22 25.1667C20.75 22.6667 17 21.0531 17 17.6667C17 14.9052 19.2386 12.6667 22 12.6667C24.7614 12.6667 27 14.9052 27 17.6667ZM22.8333 17.6667C22.8333 18.1269 22.4602 18.5 22 18.5C21.5398 18.5 21.1667 18.1269 21.1667 17.6667C21.1667 17.2064 21.5398 16.8333 22 16.8333C22.4602 16.8333 22.8333 17.2064 22.8333 17.6667Z" stroke="#7F56D9" stroke-width="1.66667" stroke-linecap="round" stroke-linejoin="round"/>
</g>
<rect x="2.5" y="1.5" width="39" height="39" rx="7.5" stroke="#EAECF0"/>
</g>
<defs>
<filter id="filter0_d_3173_90696" x="0" y="0" width="44" height="44" filterUnits="userSpaceOnUse" color-interpolation-filters="sRGB">
<feFlood flood-opacity="0" result="BackgroundImageFix"/>
<feColorMatrix in="SourceAlpha" type="matrix" values="0 0 0 0 0 0 0 0 0 0 0 0 0 0 0 0 0 0 127 0" result="hardAlpha"/>
<feOffset dy="1"/>
<feGaussianBlur stdDeviation="1"/>
<feColorMatrix type="matrix" values="0 0 0 0 0.0627451 0 0 0 0 0.0941176 0 0 0 0 0.156863 0 0 0 0.05 0"/>
<feBlend mode="normal" in2="BackgroundImageFix" result="effect1_dropShadow_3173_90696"/>
<feBlend mode="normal" in="SourceGraphic" in2="effect1_dropShadow_3173_90696" result="shape"/>
</filter>
<clipPath id="clip0_3173_90696">
<rect width="20" height="20" fill="white" transform="translate(12 11)"/>
</clipPath>
</defs>
</svg>
